<?xml version="1.0" encoding="UTF-8"?>
<svg version="1.1" viewBox="0 0 1200 1200" width="1200" height="1200" xmlns="http://www.w3.org/2000/svg">
<path transform="translate(588,9)" d="m0 0h41l35 2 35 4 35 6 34 8 30 9 28 10 31 13 29 14 23 13 20 12 18 12 14 10 16 13 13 11 14 12 14 13 8 7 10 9 14 12 3 4-6 8h-361l-147 1-41 2-40 4-33 5-30 6-28 7-32 10-33 13-30 14-23 13-19 12-18 13-11 9-14 12-16 15-11 12-11 13-14 19-12 19-12 22-9 19-11 30-8 30-5 28-3 27-1 24v13l2 35 4 32 7 34 8 27 8 22 8 18 10 20 11 18 12 17 11 14 12 13 7 8 15 14 11 9 17 13 15 10 20 12 23 12 25 11 29 11 37 12 34 9 39 8 42 6 31 3 40 2h43l41-2 44-4 46-6 47-8 41-9 37-10 36-12 28-11 27-13 24-14 18-12 12-9 16-13 15-14 11-11 9-11 10-12 13-19 12-20 9-17 11-26 11-33 8-34 5-32 2-21v-46l-3-28-5-27-7-26-9-26-11-25-10-20-6-9-9-8-13-2-151-1v506h-95v-503l-49-3-15-3-11-4-6-8-6-16-6-18v-3l14-1 387-1 11 2 10 5 6 7 5 10 9 27 10 36 8 34 7 37 5 38 2 23 1 19v50l-2 30-4 33-6 34-10 40-12 36-10 26-13 29-11 22-13 23-16 26-11 16-10 14-16 21-13 16-12 14-11 12-12 13-7 7-8 7-12 11-14 11-17 13-24 16-15 9-22 12-29 14-33 13-30 10-38 10-36 7-39 6-40 4-16 1h-71l-37-3-35-5-34-7-34-9-30-10-28-11-26-12-20-10-24-14-20-12-11-8-16-11-17-13-16-13-14-12-16-15-22-22-7-8-13-15-13-17-12-16-15-23-14-24-14-27-13-29-13-35-10-33-8-34-6-32-5-38-3-38-1-25v-33l2-40 4-36 6-36 7-30 8-29 11-32 13-31 14-29 13-23 14-23 14-20 14-19 14-17 12-14 15-16 29-29 8-7 13-11 17-13 16-12 20-13 20-12 26-14 28-13 28-11 36-12 34-9 40-8 35-5 44-4z" fill="#003265"/>
<path transform="translate(638,480)" d="m0 0h90l1 1v427l-1 1h-90z" fill="#003265"/>
<path transform="translate(472,579)" d="m0 0h90v329h-90z" fill="#003265"/>
<path transform="translate(307,673)" d="m0 0h89v235h-89z" fill="#003265"/>
</svg>
