<?xml version="1.0" encoding="UTF-8"?>
<svg version="1.1" viewBox="0 0 2048 1177" width="200" height="115" xmlns="http://www.w3.org/2000/svg">
<path transform="translate(982,40)" d="m0 0 14 1 6 3 4 5 10 2h11l6 3 5 5 12 4 5 3v2l9 3h9l10 3 5 4v2l11 2 6 4 2 3-1 6-4 6-6 7-1 4 10-5 8-6 8-1 4 3 1 23v83l-3 5-17 17-8 7-3 7 10-5 6-4 10-4 7-6 7-5 1-45 1-11 2-4 15 6 46 23 5 3 7 1 8 1 10 5 12 5 9 6 6 8 5 13 5 6 2 9 1 38v55l-1 16-8 7-11 8-1 6 10-4 8-5 10-3 1-1 2-68 1-2 5 1 14 6 90 45 18 4 10 7 4 5-2 5-7 7-9 6-4 7 10-3 7-5 5 1 1 2v134l-3 3-12 5-19 9-54 27-18 6h-3l-3-9-1-33v-71l1-12 8-6 5-5 13-12 5-5 1-3-10 4-18 8-9 6h-4l-5-5-18-9-6-4-4-1 3 6v2l4 2 5 4 5 6 6 5-4 4-19 8-29 14-23 11-52 26-9 5-5-1-8-8-10-3-13-8-6-2 4 7 10 8 8 10 2 4v7l-10 10-1 5 7-3 12-7 7-1 3 1 1 2v17l-5 3-4 2 1 5 7 2 1 1 1 97-5 5-12 11-11 7-78 39-15 8-12 9-6 7h-4l-1-2v-134l2-7 8-7 15-14 5-5 1-4-7 3-12 7-10 4-11 6-7 1-12-3-10-6-18-4-8-4-4-3-5-1 3 7 13 9 17 8 6 4 10 4 3 3v106l-1 23-7-1-11-4-8-5-10-3-10-7-5-1h-6l-5-1-5-2-11-7-10-3-9-7-9-2-13-8-11-4-10-6-10-4-11-8-1-1-1-18v-67l1-35 2-3 10 1 15 3 14 7-3-7-9-8-10-4-9-3-2-5 14-11 8-7v-3l-5 1-11 6-11 3-5 5-2 3-4-2-7-7h-8l2 6 5 2 5 4v133l-25-4-15-9-7-2-13-8-9-3-12-7-16-8-19-9-19-10-8-6v-130l5-1 5 5 2 3 7 1v-8l-5-2-2-1v-2h-2l2-5 5-5 12-11 1-4-5 1-8 6-5 2-8 2-10 7h-7l-10-6-2-2h-7l4 6 6 5 1 9v119l-1 3-9-1-10-4-32-16-29-14-40-20-2-2v-127l4-2 4 2 4 5v2l9 1-3-7-6-5-3-5 1-6 5-5 13-5 12-6 9-4 10-5 18-5 14-7 23-11 16-8 28-13h5l1 1 1 68 5 5 9 7 17 3 8 3 13 6-5-8-10-8-13-5-10-7-4-4-1-7v-99l2-15 1-1h8l9 4 4 5 8 3-4-9-11-10-7-6 2-5 1-1 21-2 15-8 9-4 16-8 17-9 23-11 15-8 6-2h7l1 2 1 26v14l1 18 12 9 16 3 11 3 8 5 3 1-2-6-11-9-15-5-3-3-1-3v-20l1-72 1-21 2-4 9 1 9 4 6 4 16 7 4 3 17 3 9 4 12 6 11 6 14 6 11 9 2 5 1 107-5 1-14-4-6-4-22-5-8-5-4-2h-3l1 5 13 10 17 8 10 5 18 4 3 2v2l6 2h7l5-3 5-6 8-7 9-9v-3l-6 2-10 7-10 2-4-4-1-8v-100l5-4 13-10 1-7-5 1-7 7-4 1-9-3-14-8-16-8-13-5-8-5-19-4-25-12-11-6-8-3-4-5 1-6 3-5 6-3 9-3 9-6 17-2 10-6 12-5 14-8 10-4 7-5z" fill="#FCFDFE"/>
<path transform="translate(982,40)" d="m0 0 14 1 6 3 4 5 10 2h11l6 3 5 5 12 4 5 3v2l9 3h9l10 3 5 4v2l11 2 6 4 2 3-1 6-4 6-6 7-1 4 10-5 8-6 8-1 4 3 1 23v83l-3 5-17 17-8 7-3 7 10-5 6-4 10-4 7-6 7-5 1-45 1-11 2-4 15 6 46 23 5 3 7 1 8 1 10 5 12 5 9 6 6 8 5 13 5 6 2 9 1 38v55l-1 16-8 7-11 8-1 6 10-4 8-5 10-3 1-1 2-68 1-2 5 1 14 6 90 45 18 4 10 7 4 5-2 5-7 7-9 6-4 7 10-3 7-5 5 1 1 2v134l-3 3-12 5-19 9-54 27-18 6h-3l-3-9-1-33v-71l1-12 8-6 5-5 13-12 5-5 1-3-10 4-18 8-9 6h-4l-5-5-18-9-6-4-4-1 3 6v2l4 2 5 4 5 6 6 5-4 4-19 8-29 14-23 11-52 26-9 5-5-1-8-8-10-3-13-8-6-2 4 7 10 8 8 10-1 4-21 12-34 18-35 18-26 12-17 8-3 3-9-3-25-10-44-18-29-13-33-15-9-6v-3l8-7 20-11 16-8 11-6 5-4 9 3 21 9 31 14 21 9 8 1 12-6 5-5v-3l-9-2-1-2 4-1 4-4 22-13 19-10 27-13 19-9 18-10 17-7 1-1 1-24v-100l-23 11-23 12-32 16-4 1-1-1-16 5h-20l-16 7h-7l-21-9-39-17-31-13-30-12-16-6v-3l14-8 27-12 2-4h-13l-4-5 7-3-4-3-16-6-26-10-3-3v-17l2-40 1-3h2l1 22v14l1 18 12 9 16 3 11 3 8 5 3 1-2-6-11-9-15-5-3-3-1-3v-20l1-72 1-21 2-4 9 1 9 4 6 4 16 7 4 3 17 3 9 4 12 6 11 6 14 6 11 9 2 5 1 107-5 1-14-4-6-4-22-5-8-5-4-2h-3l1 5 13 10 17 8 10 5 18 4 3 2v2l6 2h7l5-3 5-6 8-7 9-9v-3l-6 2-10 7-10 2-4-4-1-8v-100l5-4 13-10 1-7-5 1-7 7-4 1-9-3-14-8-16-8-13-5-8-5-19-4-25-12-11-6-8-3-4-5 1-6 3-5 6-3 9-3 9-6 17-2 10-6 12-5 14-8 10-4 7-5z" fill="#FCFDFF"/>
<path transform="translate(1070,259)" d="m0 0 10 3 33 16 19 9v2l-8 4 6-1 3-2h10l1 3-2 9v8l2 7 3 54 1 13 4 12 6 5 1 2v-90h1l1 62 1 39 14-7 10-7 16-9 17-9 16-8 14-8 4-3 2 1-5 5h-2l1 8 10-4 8-5 10-3 1-1 2-68 1-2 5 1 14 6 90 45 18 4 10 7 4 5-2 5-7 7-9 6-4 7 10-3 7-5 5 1 1 2v134l-3 3-12 5-19 9-54 27-18 6h-3l-3-9-1-33v-71l1-12 8-6 5-5 13-12 5-5 1-3-10 4-18 8-9 6h-4l-5-5-18-9-6-4-4-1 3 6v2l4 2 5 4 5 6 6 5-4 4-19 8-29 14-23 11-52 26-9 5-5-1-8-8-10-3-13-8-6-2 4 7 10 8 8 10-1 4-21 12-34 18-35 18-26 12-17 8-3 3-9-3-25-10-44-18-29-13-33-15-9-6v-3l8-7 20-11 16-8 11-6 5-4 9 3 21 9 31 14 21 9 8 1 12-6 5-5v-3l-9-2-1-2 4-1 4-4 22-13 19-10 27-13 19-9 18-10 17-7 1-1 1-24v-100l-23 11-23 12-32 16-4 1-1-1-16 5h-20l-16 7h-7l-21-9-39-17-31-13-30-12-16-6v-3l14-8 33-15 5-4 8 1 25 12 39 16 15 6 6-1 18-11 10-7 31-19z" fill="#FCFDFF"/>
<path transform="translate(719,253)" d="m0 0 11 3 9 4 9 3v2h5v2h5l9 4 1 2h5l9 4 7 3 9 4 3 1v2l7 1v2l6 1 6 3v2h4l2 5 2 1v26h-1l-1 21-1 65h2l-2 6-9-3h-2l1 3-3 3-8 1 5 4 2 2-7-1-38-16-7-2-5 1-10 6-16 7-27 12-6 4-4 4 9 5 34 16 28 12 41 18 10 4-1 2h-5l2 6 5 2 5 4v133l-25-4-15-9-7-2-13-8-9-3-12-7-16-8-19-9-19-10-8-6v-130l5-1 5 5 2 3 7 1v-8l-5-2-2-1v-2h-2l2-5 5-5 12-11 1-4-5 1-8 6-5 2-8 2-10 7h-7l-10-6-2-2h-7l4 6 6 5 1 9v119l-1 3-9-1-10-4-32-16-29-14-40-20-2-2v-127l4-2 4 2 4 5v2l9 1-3-7-6-5-3-5 1-6 5-5 13-5 12-6 9-4 10-5 18-5 14-7 23-11 16-8 28-13h5l1 1 1 68 5 5 9 7 17 3 8 3 13 6-5-8-10-8-13-5-10-7-4-4-1-7v-48l4-29 2-4 3-1v-13l2-10z" fill="#FCFDFF"/>
<path transform="translate(642,808)" d="m0 0h13l9 4 6 5 12 2 3 4 1 78 6-2 3-6 4-12 6-10 5-10 7-7 7-8 7-7 13-10 9-4 12-6 19-3 9-7h30l6 3 3 4 20 3 8 4 5 3 12 5 12 11 25 25 6 9 7 14 3 5 1 6v48l-2 2h-124l-6-2-6-7-4-8v-8l3-6 4-4 3-13 4-3 6-1h23l7-1v-7h-40l-7 1-6 16-6 7-2 10v10l3 12 6 12 3 8 3 3 3 1h25l8-3 4-6 6 3 11 12 12 12 7 10 4 10v2l10 2 7 4 2 4-1 7-3 3-13 4-8 6-12 4-8 6-3 1-12 1h-61l-5-5-4-3-9-2-9-7-11-11-10-3-5-4-3-10-12-14-5-7-3-12-2-10-5-7-2-11v-31l1-6-41 1-1 18v122l-4 2h-87l-2-5v-53l1-108 3-6 6-7 3-10 6-9 3-10 4-6 10-9 10-4 10-6 9-2 12-1 6-4 4-4z" fill="#545154"/>
<path transform="translate(1305,809)" d="m0 0h31l6 4 2 3 3 1 13 1 11 4 6 4 12 5 15 14 10 10 8 11 5 12 5 8 1 4 1 37 8 6 1 3v94l-7 5-2 4v25l-3 9-5 5-4 13-6 7-5 13-8 10h-2l-2 4-9 8-12 4-11 7-10 3-8 7-3 1-42 1h-18l-6-2-4-6-1-1-12-1-4-3v-27l1-33 3-9 8-7h6l6 5 10 2h13l11-2 8-6 10-11 5-8 5-12 5-8v-4l-5 2-9 9-5 6-8 3h-49l-9-7-11-4-11-9-13-13-9-12-12-23-9-19-2-11v-26l1-11 5-10 3-5 3-9 7-12 4-9 12-14 11-11 10-8 11-5 14-7 17-2z" fill="#545154"/>
<path transform="translate(23,736)" d="m0 0h29l60 1v155l8-4 4-12 8-14 5-12 10-20 10-11 25-1h31l29 1 6 3-1 6-6 10-5 5-8 10-6 14-6 10-4 10-6 9-2 8 1 8 4 8 4 7 8 16 11 24 7 22 21 42 7 16v5l-8 1h-93l-3-6-3-11-4-8-4-14-3-10-6-16-3-12-7-17-5-16-4-9-5-22-5-4-1 1-1 143-3 1h-69l-10-2-8-9-1-3-1-157v-83l1-59z" fill="#545154"/>
<path transform="translate(392,808)" d="m0 0 12 1 6 3 3 4 16 2 10 4 6 4 12 5 10 9 19 19 8 16 6 11 1 6 1 24 3 3 5 2 1 2v116l-4 6-10 8-73 1-3-1-2-8-1-107-3-7-4-7-4-10-2-2-4-1h-25l-8 4-8 8-2 4v14l3 8 6 7 7 4 15 2h17l3 4 1 66v20l-2 1h-69l-6-7-10-3-11-9-26-26-9-12-10-21-2-9v-49l1-14 3-10 8-16 4-6 12-14 21-21h2v-2h2l2-4 11-10 5-2 25-1 7-2 2-4 2-2z" fill="#545154"/>
<path transform="translate(1905,808)" d="m0 0h17l13 4 4 3 18 4 17 8 12 6 7 7 7 18 8 8 7 4 1 2 1 18v137l1 4 7 5-1 5-7 9-2 2-22 1h-57l-9-12-2-6-1-12v-72l1-16 5-5 5-3v-9l-4-7-8-8-7-1-5 6-6 5v138l-3 2h-89l-1-1-1-9v-120l1-25 5-8 4-6 4-11 12-22 14-15 10-7 40-20z" fill="#545154"/>
<path transform="translate(1070,808)" d="m0 0 10 1 6 4 2 3 10 2h8l7 3 13 12 21 21 8 10 5 13 5 7 1 4 1 40v124l-3 1h-88l-1-1-1-18v-130l-1-3-5-1h-10l-3 1-1 137-3 5-10 10h-78l-1-2v-116l1-46 2-7 6-8 3-10 7-8 30-30 7-6 5-2 15-1 8-6 3-2z" fill="#545154"/>
<path transform="translate(642,808)" d="m0 0h13l9 4 6 5 12 2 3 4 1 78 6-2 3-6 4-12 6-10 5-10 7-7 7-8 7-7 13-10 9-4 12-6 19-3 9-7h30l6 3 3 4 20 3 8 4 5 3 12 5 12 11 25 25 6 9 7 14 3 5 1 6v48l-2 2h-124l-6-2-6-7-4-8v-8l3-6 4-4 3-13 4-3 6-1h23l7-1v-5l4 5 3 8v3l-2 1h-36l-7 1-2 13v15l1 4 10 2 114-1v-20l-2-19-6-18-10-19-9-12-13-13-15-10-16-7-14-4-25-3h-11l-21 3-17 5-14 7-12 8-9 8h-2l-2 4-7 7-10 15-7 16-5 17-3 21v10l3 21 6 18 8 16 9 13 15 15 10 7 16 9 15 5 14 3 7 1h27l21-5 12-4 20-9 3-2-1-7-11-14-12-14-9-11-2-4-4-2-5-3-6 3-6 4-5 1h-11l-9-2-9-6-8-10-5-10-3-10v-23l2-9 5-10 9-11 9-6 6-2h18l12 6 2 3h-38l-7 1-6 16-6 7-2 10v10l3 12 6 12 3 8 3 3 3 1h25l8-3 4-6 6 3 11 12 12 12 7 10 4 10v2l10 2 7 4 2 4-1 7-3 3-13 4-8 6-12 4-8 6-3 1-12 1h-61l-5-5-4-3-9-2-9-7-11-11-10-3-5-4-3-10-12-14-5-7-3-12-2-10-5-7-2-11v-31l1-6-41 1-1 18v122l-4 2h-87l-2-5v-53l1-108 3-6 6-7 3-10 6-9 3-10 4-6 10-9 10-4 10-6 9-2 12-1 6-4 4-4z" fill="#545154"/>
<path transform="translate(1672,736)" d="m0 0 88 1 1 1v313l-6 2h-85l-2-6v-288l1-21z" fill="#555254"/>
<path transform="translate(30,739)" d="m0 0h79v264l-1 42h-78l-1-1v-304z" fill="#545154"/>
<path transform="translate(1142,529)" d="m0 0h6v20l8 3 1 1 1 97-5 5-12 11-11 7-78 39-15 8-12 9-6 7h-4l-1-2v-134l1-5 19-10 17-11 19-11 60-30z" fill="#FDEA1B"/>
<path transform="translate(840,532)" d="m0 0 1 2 3-1v2l3-1 2 1v2l3-1v2l3-1 7 3 1 2 3-1 5 2v2h5l10 5h2v2h5l6 3 11 5 17 8 17 9 1 2h3v2l5 1 7 3 3 1v2l5 1 4 1v2h5v2l8 2 6 6v15l-1 14-1 45h1v33l1 6v6l1 3-5-1-11-5-8-3v-2h-5l-12-6-6-2-20-10-8-3v-2l-7-1-8-4v-2l-3 1-30-15-10-4-10-5v-2l-6-1v-2l-4-2v-2h-2v-58l1-56z" fill="#F31828"/>
<path transform="translate(1296,447)" d="m0 0h3l1 6 1 98v25l-3 6-10 7-72 36-23 11-19 10-4 1-2-4-1-15v-111l2-5 8-7 19-9 62-31 19-10 16-7z" fill="#FEEA1B"/>
<path transform="translate(851,307)" d="m0 0 6 3 4 1v2h5l6 3v2h5l2 1v2l3-1 6 3v2l3-1 6 3 1 2h5l6 3 7 3 10 4 2 1v2h5l8 4 7 3 3 1v2l5 1 8 3v2l7 1 14 7 1 2v124l-6-1-15-8-15-6-8-4-7-3-15-7-6-2v-2l-7-1-2-1v-2l-7-1-7-4-6-2v-2h-5l-2-1v-2l-7-1-6-3-9-4-2-2-5-4-2-5v-11h-1v-12h1v-93z" fill="#F31828"/>
<path transform="translate(678,459)" d="m0 0 5 1v2l3-1v2l3-1v2l3-1 2 1v2l3-1 9 4 3 1v2h5l2 1v2h5l4 2v2l3-1 6 3 10 4 6 3 7 3 9 4v2l7 1 6 3 7 3v2l3-1 5 4 5 1v2l3-1 2 1v2l5 2 2 2v4l2 1-1 92-1 26-5-1-13-7-6-2v-2l-3 1-14-7-6-2-12-6-6-2-4-2v-2h-5l-1-2-7-2-16-8v-2h-5l-16-8v-2h-5l-2-1v-2l-5-1-3-4-1-78v-38z" fill="#F31829"/>
<path transform="translate(1136,302)" d="m0 0h3l1 8v92l-1 24-6 4-19 8-22 12-28 13-26 13-26 16h-3l-1-2-1-12-1-60v-49l8-6 28-13 46-24 16-8z" fill="#FEEA1B"/>
<path transform="translate(1071,473)" d="m0 0 7 1 32 17 15 8 10 4 1 5-13 8-24 13-29 15-19 10-34 16-20 10-64-26-30-13-48-22-6-5 6-7 21-12 16-8 13-7 5-4 9 3 21 9 31 14 21 9 8 1 12-6 10-6 25-13 16-9z" fill="#323DDF"/>
<path transform="translate(1420,384)" d="m0 0 2 2v81l1 19v30l-3 3-12 5-19 9-54 27-8 3h-7l-1-19v-106l8-6 25-15 18-10 23-11 21-10z" fill="#FEEA1B"/>
<path transform="translate(719,253)" d="m0 0 11 3 9 4 9 3v2h5v2h5l9 4 1 2h5l9 4 7 3 9 4 3 1v2l7 1v2l6 1 6 3v2h4l2 5 2 1v26h-1l-1 21-1 65h2l-2 6-9-3-8-3-4-2v-2l-3 1v-2h-5l-2-1v-2h-5v-2h-5l-6-3-9-4-11-5v-2l-6-1-12-7-15-8-6-3v-2h-2l-2-8v-97l2-10z" fill="#F31828"/>
<path transform="translate(543,397)" d="m0 0 7 3 11 4 8 4 10 4 14 6 10 4 14 7 6 2 12 6v2l5 1 5 2 4 5 2 2 2 6v15h-1l-1 11-1 69h2v13l-1 5h-3l-2-2-5-3-9-4v-2h-5l-3-2-9-3-2-1v-2l-3 1-12-6v-2h-5l-12-6-21-10-6-3-3-1v-2l-5-2-4-2-1-10v-108z" fill="#F31828"/>
<path transform="translate(872,117)" d="m0 0 4 1 11 4 11 5 7 3 13 5 7 3 11 4 1 2h5l12 6 5 2 5 1v2l7 1 2 1v2l9 3 4 4v106l-6-1-6-3-9-3v-2h-6l-10-4-9-2-7-3-12-3-6-3-15-7v-2l-10-3v-2l-5-1-10-5-3-4-1-14 1-1v-66l-1-6v-19z" fill="#F31829"/>
<path transform="translate(1257,242)" d="m0 0h4v109l-3 9-10 8-26 14-16 8-17 9-12 8-12 7h-3l-1-7-1-32-1-62v-19l3-5 46-24 23-11z" fill="#FEEA1B"/>
<path transform="translate(1113,108)" d="m0 0h2l1 2v104l-5 6-18 12-15 9-25 12-17 9-12 7-7 3h-3l-2-21-1-60v-24l3-5 24-15 24-14 26-13 14-8z" fill="#FEEA1B"/>
<path transform="translate(1070,259)" d="m0 0 10 3 33 16 19 9v2l-23 11-38 19-19 10-23 12-16 8-9 4h-7l-21-9-39-17-31-13-30-12-16-6v-3l14-8 33-15 5-4 8 1 25 12 39 16 15 6 6-1 18-11 10-7 31-19z" fill="#323DDF"/>
<path transform="translate(1305,809)" d="m0 0h31l6 4 2 3 3 1 13 1 11 4 6 4 12 5 15 14 10 10 8 11 5 12 5 8 1 4 1 37 8 6 1 3v94l-7 5-2 4v25l-3 9-5 5-4 13-6 7-5 13-8 10h-2l-2 4-9 8-12 4-11 7-10 3-8 7-3 1-42 1h-18l-6-2-4-6-1-1-12-1-4-3v-27l1-33 3-9 8-7h6l6 5 10 2h13l11-2 8-6 10-11 5-8 5-12 5-8h1l-1 14-4 12-6 9-4 5-9 7-8 4-8 2h-17l-11-2-13-5v55l1 12 2 3 13 4 8 2h34l18-4 15-5 15-8 14-10 10-10 10-14 9-17 5-15 4-19 4-32 1-20v-26l-1-23-4-37-4-20-6-16-8-14-11-13-11-8-15-8-13-5-18-4-9-1h-25l-17 3-21 7-14 8-14 11-10 10-10 14-7 15-6 18-3 22 1 19 4 18 8 19 9 14 12 14 12 9 12 7 15 5 13 2 30-1 8-3 4-7 2-8v-47l1-14-14 4h-7l-9-3-10-9-6-9-2-5v-11l6-10 8-9 10-5 3-1h11l10 5 8 9 3 9 1 6 1 21 1 40v38l-1-2-5 2-9 9-5 6-8 3h-49l-9-7-11-4-11-9-13-13-9-12-12-23-9-19-2-11v-26l1-11 5-10 3-5 3-9 7-12 4-9 12-14 11-11 10-8 11-5 14-7 17-2z" fill="#FCFDFF"/>
<path transform="translate(983,47)" d="m0 0 7 1 44 15 35 13 28 10 7 3v2l-17 10-25 14-21 12-20 12-13 5-9-1-23-10-28-12-34-14-26-8-6-3 1-3 16-8 39-18 29-13 10-4z" fill="#323DDE"/>
<path transform="translate(642,808)" d="m0 0h13l9 4 6 5 12 2 3 4 1 78 6-2 3-6 4-12 6-10 5-10 7-7 7-8 7-7 13-10 9-4 12-6 19-3 9-7h30l6 3 3 4 20 3 8 4 5 3 12 5 12 11 25 25 6 9 7 14 3 5 1 6v48l-2 2h-124l-6-2-6-7-4-8v-8l3-6 4-4 3-13 4-3 6-1h23l7-1v-5l4 5 3 8v3l-2 1h-36l-7 1-2 13v15l1 4 10 2 114-1v-20l-2-19-6-18-10-19-9-12-13-13-15-10-16-7-14-4-25-3h-11l-21 3-17 5-14 7-12 8-9 8h-2l-2 4-7 7-10 15-7 16-5 17-3 21v10l3 21 6 18 8 16 9 13 15 15 10 7 16 9 15 5 14 3 7 1h27l21-5 12-4 20-9 3-2-1-7-11-14-12-14-9-11-2-4-4-2-5-3-6 3-6 4-5 1h-11l-9-2-9-6-8-10-5-10-3-10v-23l2-9 5-10 9-11 9-6 6-2h18l12 6 2 3h-38l-7 1-6 16-6 7-2 10v10l3 12 6 12 3 8 3 3 3 1h25l8-3 4-6 6 3 11 12 12 12 7 10 4 10v2l10 2 7 4 2 4-1 7-3 3-13 4-8 6-12 4-8 6-3 1-12 1h-61l-5-5-4-3-9-2-9-7-11-11-10-3-5-4-3-10-12-14-5-7-3-12-2-10-5-7-2-11v-31l1-6-41 1-1 18v122l-4 2h-87l-2-5v-53l1-108 3-6 6-7 3-10 6-9 3-10 4-6 10-9 10-4 10-6 9-2 12-1 6-4 4-4zm1 11-21 3-14 5-11 6-12 9-9 10-9 16-6 16-3 13-1 7-1 41v100l16 1h57l6-1 1-17 1-88 1-18 6-11 7-5 8-2h9l6 1 2-4v-81l-1-1z" fill="#FCFDFF"/>
<path transform="translate(685,315)" d="m0 0h5v64l4 4 24 11 15 6 6 4v2l-26 9-17 6-28 11-2 1-9-1-24-10-24-11-26-11-25-11-13-6 4-4 10-6 27-13 13-6 33-16 34-15z" fill="#323DDF"/>
<path transform="translate(1537,941)" d="m0 0h13l14 3 17 8 9 7 6 9 9 19 2 6 1 7v11l-3 9-12 13-17 17-8 4-10 2-2 4-3 3-4-1-4-5-5-3h-15l-8-3-17-17-4-6-2-11v-20l1-16 4-8 14-15 9-9 8-6z" fill="#545154"/>
<path transform="translate(755,410)" d="m0 0 7 1 14 5 25 11 24 10 29 13 28 11 10 5 2 2-1 4-9 6-23 10-15 6-20 10-7-1-16-6-36-16-37-16-30-14-9-5v-3l8-6 22-10 20-9 12-6z" fill="#323DDF"/>
<path transform="translate(1287,305)" d="m0 0 5 1 35 16 26 12 32 15 25 11 7 3-3 3-27 13-22 12-31 16-25 11-8 1-24-9-32-11-11-6 4-4 7-4 26-10 15-8z" fill="#323DDE"/>
<path transform="translate(23,736)" d="m0 0h29l60 1v155l8-4 4-12 8-14 5-12 10-20 10-11 25-1h31l29 1 6 3-1 6-6 10-5 5-8 10-6 14-6 10-4 10-6 9-2 8 1 8 4 8 4 7 8 16 11 24 7 22 21 42 7 16v5l-8 1h-93l-3-6-3-11-4-8-4-14-3-10-6-16-3-12-7-17-5-16-4-9-5-22-5-4-1 1-1 143-3 1h-69l-10-2-8-9-1-3-1-157v-83l1-59zm7 3-1 2v303l1 1h78l1-42v-264zm128 84-5 5-20 40-8 19-2 8v13l6 22 15 43 17 47 8 22 3 3h86l-2-9-8-16-18-42-22-51-8-19-1-5 8-16 8-14 13-28 7-11 3-6v-4z" fill="#FCFDFF"/>
<path transform="translate(1213,401)" d="m0 0h8l30 13 23 11 9 6-3 3-26 12-36 18-22 12-17 9-19 9h-7l-24-10-20-8-16-8-3-2v-2l17-8 23-11 34-18 8-5 32-16z" fill="#323DDF"/>
<path transform="translate(1143,169)" d="m0 0 24 10 40 18 36 16 13 5 2 3-1 4-46 23-19 10-27 14-12 5-8-1-29-13-17-8-5-5 31-15 17-10 1-4z" fill="#323DDF"/>
<path transform="translate(845,178)" d="m0 0 2 1-2 43v17l4 3 30 11 12 5 3 3-10 4-17 7-16 8-11 5-8-1-34-16-40-17-25-11-6-4 1-4 6-4 21-9 22-10 16-8 29-13z" fill="#323DDF"/>
<path transform="translate(392,808)" d="m0 0 12 1 6 3 3 4 16 2 10 4 6 4 12 5 10 9 19 19 8 16 6 11 1 6 1 24 3 3 5 2 1 2v116l-4 6-10 8-73 1-3-1-2-8-1-107-3-7-4-7-4-10-2-2-4-1h-25l-8 4-8 8-2 4v14l3 8 6 7 7 4 15 2h17l3 4 1 66v20l-2 1h-69l-6-7-10-3-11-9-26-26-9-12-10-21-2-9v-49l1-14 3-10 8-16 4-6 12-14 21-21h2v-2h2l2-4 11-10 5-2 25-1 7-2 2-4 2-2zm-19 11-19 3-21 7-15 9-13 10-10 10-10 15-9 19-4 13-2 12v38l4 17 5 13 9 16 11 14 11 10 15 10 16 8 15 5 11 2 31 2 2-1 1-4 1-74-1-3h-22l-13-4-8-7-6-10-2-9 1-11 6-12 5-6 10-7 6-2h13l10 3 8 6 7 9 4 11 1 4 1 20v91h70l8-1 1-1 1-18v-80l-1-20-3-22-5-17-5-12-10-16-9-10-8-8-13-8-15-7-19-5-14-2z" fill="#FCFDFF"/>
<path transform="translate(1905,808)" d="m0 0h17l13 4 4 3 18 4 17 8 12 6 7 7 7 18 8 8 7 4 1 2 1 18v137l1 4 7 5-1 5-7 9-2 2-22 1h-57l-9-12-2-6-1-12v-72l1-16 5-5 5-3 1-8h1l-2 126h80l-1-140-4-17-7-19-10-16-10-11-15-10-13-6-13-4-12-2-17-1-16 2-16 5-16 8-14 11-8 8-7 10-8 16-6 18-2 12v136h77l1-129 1-11 4-4 3-1h22l6 3 2 3v12l-3-4-7-8-5-4h-5l-5 6-6 5v138l-3 2h-89l-1-1-1-9v-120l1-25 5-8 4-6 4-11 12-22 14-15 10-7 40-20z" fill="#FCFDFF"/>
<path transform="translate(1070,808)" d="m0 0 10 1 6 4 2 3 10 2h8l7 3 13 12 21 21 8 10 5 13 5 7 1 4 1 40v124l-3 1h-88l-1-1-1-18v-130l-1-4 5 2 3 3 1 3 1 31v106h79l-1-121-1-21-3-16-6-15-7-13-10-13-9-8-15-9-16-6-16-3-16-1-18 2-15 4-16 8-11 7-9 8-9 12-9 15-6 16-1 6-1 17-1 122-1 9h79l1-107 1-29 3-8 1-1h5l-1 138-3 5-10 10h-78l-1-2v-116l1-46 2-7 6-8 3-10 7-8 30-30 7-6 5-2 15-1 8-6 3-2z" fill="#FCFDFF"/>
<path transform="translate(688,446)" d="m0 0h5l7 4 34 16 28 12 41 18 10 4-1 2h-5l2 6 5 2 5 4v133l-25-4-15-9-7-2-13-8-9-3-12-7-16-8-19-9-19-10-8-6v-82h1l1 78 4 3v2l5 1 9 4v2l8 2 5 3 6 2 8 5 6 2 8 4 13 6v2l3-1 8 4v2l3-1 4 2v2l3-1 10 5 9 4 6 2 10 5 2 2 3 1v-42l1-76-3-6-8-5-9-3-4-3-6-2-6-3-10-4-12-6-7-3-11-5-9-4-6-2-18-8-1-2-3 1-8-4-11-3h-3-1v-10l5-1 5 5 2 3 7 1v-8l-5-2-2-1z" fill="#FCFCFB"/>
<path transform="translate(1672,736)" d="m0 0 88 1 1 1v313l-6 2h-85l-2-6v-288l1-21zm-1 3-1 2 1 4v300h85l1-291 1-14z" fill="#FCFDFF"/>
<path transform="translate(30,739)" d="m0 0h79v10l-3 3h-5l-1-4-9-2-17-1-14-1h-8l-4 1h-7l-5 3-1 18v184l1 54 1 19 2 12 1 3 12 2h31l17-2h4l2-5h1l1 5v7h-78l-1-1v-304z" fill="#43424A"/>
<path transform="translate(1671,739)" d="m0 0 87 1-2 21h-1l-3-11-4-5-22-2h-39l-1 1-7 1-4 6v69l1 10v13l1 12v38l1 16-1 2v24l-1 8v8h-2l1 32 1 5v15l1 20v8l2 6 2 1v2l8 1h30l34-2v-80l-1-52-1-18v-26l1-12v-20l1-35 1-18h1l1 73v194h-85v-300l-1-5z" fill="#424148"/>
<path transform="translate(534,387)" d="m0 0 6 2 4 5v2l3 1-2 2h-3v113l1 4 14 7 3 1v2l9 3 6 3 3 1v2l6 1 10 5 8 3 9 5 6 2v2l3-1 5 2 3 2 6 2 11 6 5 3 1-5v-9l1-3h-2v-69l1-20 4 2v107l-1 3-9-1-10-4-32-16-29-14-40-20-2-2v-127z" fill="#FCFCFE"/>
<path transform="translate(1136,507)" d="m0 0 2 2v7l-10 10-1 5 7-3 12-7 7-1 3 1 1 2v17l-5 3-4 1v-15l-13 3-25 12-36 18-23 13-19 12-15 8-2-1 10-9 13-12 6-6 1-4-7 3-9 5-11-1 3-3 34-16 37-19 22-12 18-10z" fill="#F5FEFF"/>
<path transform="translate(1296,447)" d="m0 0h3l1 6 1 98v25l-3 6-10 7-72 36-23 11-19 10-4 1-2-4-1-15v-111l2-5 8-7 19-9 62-31 19-10 16-7zm-3 4-16 8-41 21-56 30-9 4-1 3 1 28 1 85 1 13 5-1 22-13 32-17 34-18 16-8 11-6 3-6 1-64 1-37v-21z" fill="#F7FEFF"/>
<path transform="translate(1138,426)" d="m0 0 5 1-2 4-11 7-13 8-16 8-9 3-4 2-1 4h3l1 3 16 8 11 5-4 1 4 7 10 8 6 8-9-3-25-13-22-12-7-1-14 8-18 10-19 10-3-1v-3l-9-2-1-2 4-1 4-4 22-13 19-10 27-13 19-9 18-10 17-7z" fill="#F5FEFF"/>
<path transform="translate(1537,941)" d="m0 0h13l14 3 17 8 9 7 6 9 9 19 2 6 1 7v11l-3 9-12 13-17 17-8 4-10 2-2 4-3 3-4-1-4-5-5-3h-15l-8-3-17-17-4-6-2-11v-20l1-16 4-8 14-15 9-9 8-6zm3 8-11 3-10 5-10 9-6 9-4 10-1 6v18l3 14 5 9 5 6 8 6 10 5 15 3h8l16-4 12-7 6-5 7-10 4-8 2-10v-14l-4-15-7-11-5-6-10-7-10-4-10-2z" fill="#FCFDFF"/>
<path transform="translate(873,111)" d="m0 0 9 1 9 4 6 4 16 7 4 3 17 3 9 4 12 6 11 6 14 6 11 9 2 5 1 107-5 1-14-4-6-4-22-5-8-5-1-3 8 1 11 4 10 3 7 3 12 5-1-7v-99l-1-3-9-3-6-3-24-10-20-8-13-5-10-4-13-6-10-4-6-2h-2l1-6z" fill="#FCFCFE"/>
<path transform="translate(1148,550)" d="m0 0 7 1 2 2 1 97-5 5-12 11-11 7-78 39-15 8-12 9-6 7h-4l-1-2v-119h1l1 111 7-3 19-10 23-13 33-17 22-12 17-9 8-5 1-2 1-22z" fill="#FCFDFF"/>
<path transform="translate(1146,284)" d="m0 0 11 1 2 4 2 1-1 4v117h-1l-2-10-6-5-4-12-3-46-1-21-2-7v-8l2-12-10 1-6 3h-5l3-3 4-2h4v-2l7 1 3-3z" fill="#F5FEFF"/>
<path transform="translate(1936,929)" d="m0 0h1v9h4l1 3 1 74 2 14 3 11 28 1 18-1 14-1v-2h2v-14l1-11v-34l1-8 1-26h1l1 101h-80v-67z" fill="#424148"/>
<path transform="translate(1820,908)" d="m0 0h1l1 13 1 5 2 29v32l1 43 1 9h3v2h41l16-2 1-2 3-4 1-7 2-11 1-8 2-2 1 8v13l-1 19-35 1h-42l-1-1v-136z" fill="#42414B"/>
<path transform="translate(1296,447)" d="m0 0h3l1 6 1 98v25l-3 6-10 7-26 13-1-2 27-14 7-5 3-5v-6l-2 2v-62l1-37v-21l-6 1-16 8-39 20-56 30-9 3-1 2v-2l-2-1 9-8 19-9 62-31 19-10 16-7z" fill="#FCFDFF"/>
<path transform="translate(1253,363)" d="m0 0 2 1-5 5h-2l-2 6-8 7-5 5 2 4h-2v2l-12-1-9 4-2 3-5 3v2l2 1-19 10-16 8-6 1 1-2h-8l-2-1 2-5 2-3v3l7-3 4-4 11-7 15-9 21-11 16-8 14-8z" fill="#F5FEFF"/>
<path transform="translate(1315,440)" d="m0 0h3l1 89 1 15v19l3 1-9 2-3-9-1-33v-71l1-9z" fill="#F5FEFF"/>
<path transform="translate(1283,430)" d="m0 0 3 1 1 3-3 3-10 5h-2l-1 3-31 15-23 11-52 26-9 5-5-1-8-8-10-3-13-8-2-2 9 2 23 10 3 1h7l23-11 22-12 39-20 27-13 11-5z" fill="#F6FEFF"/>
<path transform="translate(774,398)" d="m0 0 7 3 13 5 8 4 6 2 4 2 3 6-3 3-8 1 5 4 2 2-7-1-38-16-7-2-5 1-8 5-4-1v-3l-3 1h-14l-10 2 1-3 21-7h2v-3l17 2 17 3 7 2h5l-1-2-3-1v-2l-6-2-3-2v-2z" fill="#F6FEFF"/>
<path transform="translate(886,447)" d="m0 0 3 1v2l3-1 10 5 12 5 6 3 13 6 7 3 22 10 1 2 3-1 8 4 1 3h-9l-16-8-15-5-6-1 6 8 15 8-4 1-17-8-17-7-5 2-9 6-3-1 2-2v-3l-9-1-10 5-15 6h-2v-2l23-10 9-6 1-5 9 2 13 4h5l-2-5-4-3-10-4-9-3-4-2v-2l-5-1-4-4z" fill="#F6FEFF"/>
<path transform="translate(1084,953)" d="m0 0 3 1 2 17 1 35v25l1 2 1 8h49l17-2h2l1-40h1v46l-43 1-36-1v-45z" fill="#41404E"/>
<path transform="translate(1091,98)" d="m0 0 5 1 1 7-8 7-15 8-16 8-21 11-3 1h-9l-3-3 16-10 19-11 27-15z" fill="#F5FEFF"/>
<path transform="translate(1393,375)" d="m0 0 3 1 2 4-2 5-5 4-23 12-15 8-10 3v-2l-10 4-8 2-12 1 3-3 28-13 23-12z" fill="#F5FEFF"/>
<path transform="translate(1097,305)" d="m0 0 3 1-4 5-8 5-4 6-15 11-6 4-2 2-21 7h-19l3-3 14-8 16-8z" fill="#F5FEFF"/>
<path transform="translate(1671,739)" d="m0 0 87 1-2 21h-1l-3-11-4-5-22-2h-39l-1 1-7 1-4 6-1 66-1 188h-1l-1-260-1-5z" fill="#4B494D"/>
<path transform="translate(1237,234)" d="m0 0h2l3 6v2l-5 3-7 5-23 11-9 4-24 8-14 2 3-3 20-10 19-10 33-17z" fill="#F5FEFF"/>
<path transform="translate(1754,778)" d="m0 0h1l1 73v175h-1l-1-49-1-12-1-58-1-18v-26l1-12v-20l1-35z" fill="#444452"/>
<path transform="translate(1043,972)" d="m0 0h1l1 43v24l-1 6h-79v-9l2-4 2 6 4 2 13 1h31l17-2 3-1 2-8-1-3 1-7 1-11v-13l1-19z" fill="#42414B"/>
<path transform="translate(1090,466)" d="m0 0 16 7 12 6-4 1 4 7 10 8 6 8-9-3-25-13-22-12-6-2 4-3 12-3z" fill="#FCFDFF"/>
<path transform="translate(499,933)" d="m0 0h1l2 13v80l-1 18-1 1-8 1h-15l-24-1v-1l37-1-1-2 5-4h3l-1-19v-38l1-26 1-5-1-10z" fill="#424252"/>
<path transform="translate(714,277)" d="m0 0h1v79l-1 6-4-4-2-7-2-13v-27l4-29 2-4z" fill="#F5FFFF"/>
<path transform="translate(1568,953)" d="m0 0 10 5 7 6 9 13 4 12 1 5v14l-3 12-6 11-6 7-10 7-12 5-1-2 8-4 8-6 5-2 4-6h2v-2h2l2-6 1-14-2-7-2-10-2-7-2-9v-3l-5-3v-3h-2v-3h-2v-2l-5-2-5-4z" fill="#42424C"/>
<path transform="translate(1913,818)" d="m0 0 17 1 16 3 16 6 11 6 12 9 9 10 8 13 5 10 3 9-1 4-2-5-7-14-8-10-6-8-8-7v-2l-3-1-4-4-16-9-3-1v-2h-11l-1-1-28-3-9 1-11 1-5 2-9 2 3-3 16-5z" fill="#434249"/>
<path transform="translate(1422,486)" d="m0 0h1v30l-3 3-12 5-19 9-54 27-8 3-3-1 17-9 14-8 45-25 19-9h2z" fill="#FCFDFF"/>
<path transform="translate(1673,817)" d="m0 0 2 1 1 12v13l1 12v38l1 16-1 2v24l-1 8v8h-2v32h-1z" fill="#424145"/>
<path transform="translate(1414,1087)" d="m0 0 1 4-6 10-10 13-10 10-18 12-15 7-18 5-2-2 7-3 9-3 12-6 4-1v-2l4-1v-2l11-8h2v-3h2l2-4 3-4h2v-2l4-3h2v-2l5-5h2l2-4 3-4h2z" fill="#43424B"/>
<path transform="translate(1168,514)" d="m0 0h2l1 3 1 28v97h-1l-2-18 1-14-2-1-1-40v-52z" fill="#F5FEFF"/>
<path transform="translate(1149,520)" d="m0 0 7 1 1 2v17l-5 3-4 1v-15l-13 3-25 12-26 13-2-1 19-12 8-5 10-4 4-4 3-6 2 1-1 5 7-3 12-7z" fill="#FCFDFF"/>
<path transform="translate(651,461)" d="m0 0 4 2v88l-1 10-3 1v-9l1-3h-2v-69z" fill="#FDFCF9"/>
<path transform="translate(634,999)" d="m0 0h1l1 8v21l-1 17-6 1h-57l-15-1v-18h1l1 10 4 4 15 2h38l9-3 4-3 1-3 2-33z" fill="#3E406B"/>
<path transform="translate(1118,164)" d="m0 0 4 2 2 3v7h2v23l-1 1-1 9-7 9-4 2 1-4 2-4 1-46z" fill="#F5FEFF"/>
<path transform="translate(1142,659)" d="m0 0 2 1-8 7-14 8-13 7h-2l-1 3-14 7-6 1-42 21-2-1 23-13 33-17 22-12 17-9z" fill="#F6FEFF"/>
<path transform="translate(875,251)" d="m0 0 7 1 12 6 20 4 15 5 5 4v2l-6-1-11-5h-5l-7 5-3-1 1-2h-13l-4-5 7-3-4-3-13-5z" fill="#F6FEFF"/>
<path transform="translate(1216,976)" d="m0 0 4 5 7 11 7 10 4 3v2l3 1v2h2l4 5 14 8 10 5 17 3 13 1 4 3-4 1h-9l-16-3-16-6-11-7-11-9-9-10-10-15-4-9z" fill="#424253"/>
<path transform="translate(1079,557)" d="m0 0 3 1-19 10-17 10-17 11-12 6-2-1 10-9 13-12 5-5 2 1 4 1 6-2h4v-2l10-4z" fill="#FCFDFF"/>
<path transform="translate(1080,239)" d="m0 0 2 1-18 14-14 8h-2v2l-6 3-7-1-7 1 3-3 18-10 23-11z" fill="#F5FEFF"/>
<path transform="translate(183,824)" d="m0 0h55l-1 6-5 9h-4l-1-4-1-5-9-2h-10l-3-1-21-1z" fill="#444349"/>
<path transform="translate(854,661)" d="m0 0 13 6 10 5 13 6 10 5 6 2 8 4 7 3 1 3-13-3-15-8-13-5-8-5-13-5-8-6z" fill="#F7FEFF"/>
<path transform="translate(1118,480)" d="m0 0 9 2 23 10 3 1h8l5 1 8-5 7-2v2l-25 13-5-1-8-8-10-3-13-8z" fill="#FCFDFF"/>
<path transform="translate(1913,818)" d="m0 0 17 1 16 3 6 2v2h-11l-1-1-28-3-9 1-11 1-5 2-9 2 3-3 16-5z" fill="#43424E"/>
<path transform="translate(1167,569)" d="m0 0h1l1 40 1 1v15l1 12 1-7h1v13l13-6 6-2v2l-20 10-3-1-1-3-1-15z" fill="#FCFDFF"/>
<path transform="translate(707,989)" d="m0 0 3 1 6 9 3 4v2h2l7 8 6 5v2l4 2 10 7 14 8 16 6-2 2-15-5-18-10-11-9-14-14-10-15z" fill="#434250"/>
<path transform="translate(1721,740)" d="m0 0h37l-2 21h-1l-3-11-4-5-22-2-6-1z" fill="#42414A"/>
<path transform="translate(1874,828)" d="m0 0 3 1-1 2h-4l-1 3-5 2-6 4-6 7-5 5-3 4h-2l-1 3h-2l-1 4-6 7-1 3-3-1 8-14 12-13 12-10z" fill="#434350"/>
<path transform="translate(310,1022)" d="m0 0 12 7 9 6 15 6 16 5 12 2v1l-7 1-15-3-18-7-14-8-10-7z" fill="#424252"/>
<path transform="translate(1311,529)" d="m0 0 2 4v7h2v7l3 9 1-12h1v19l3 1-9 2-3-9z" fill="#FDFDFF"/>
<path transform="translate(250,1028)" d="m0 0 3 3 4 8 1 6-38-1v-1l17-2 8-3h4z" fill="#424149"/>
<path transform="translate(1e3 452)" d="m0 0h1l1 36h-3l-4-11-1-9 1-7z" fill="#F5FFFF"/>
<path transform="translate(1142,182)" d="m0 0h1l1 15v19l-2 2-4-9-1-16 2-7 2-1z" fill="#F5FEFF"/>
<path transform="translate(1413,514)" d="m0 0 2 1-6 4-16 8-12 7-11 6-27 14-1-2 24-13 23-13 17-9z" fill="#F6FEFF"/>
<path transform="translate(1334,955)" d="m0 0 2 1-1 3-2 2 2 1v7l-5-1h-3l-5-1-2-3 1-5z" fill="#424148"/>
<path transform="translate(378,970)" d="m0 0h23l1 4-2 8h-4v-2l-4-1-2-3-10-3-2-1z" fill="#43424B"/>
<path transform="translate(1395,844)" d="m0 0 5 2 11 13 10 18-3 3-1-4-3-3v-3h-2l-4-7-7-10-5-5z" fill="#424151"/>
<path transform="translate(847,179)" d="m0 0h2v34l-2 5-1 6h-1v-25l1-17z" fill="#F6FEFF"/>
<path transform="translate(399,1009)" d="m0 0h1l1 22v16l-1 4-4 1-6-1v-1h5l-1-3h2v-12l2-6v-15z" fill="#3F405A"/>
<path transform="translate(721,601)" d="m0 0 6 1 12 6 11 5v2l3-1 8 4 1 3-6-1-9-4-24-11z" fill="#F8FDF9"/>
<path transform="translate(557,1027)" d="m0 0h1l1 10 4 4 15 2 37 1v1h-58z" fill="#424145"/>
<path transform="translate(1271,1135)" d="m0 0 7 6 6 2 8 2v1l11 1 6 2v1h-15l-18-5-5-3-1-3z" fill="#424251"/>
<path transform="translate(1269,1028)" d="m0 0 19 3 13 1 4 3-4 1h-9l-16-3-7-3z" fill="#414154"/>
<path transform="translate(460,844)" d="m0 0 5 1 11 11 7 11v2h-3l-8-11-10-10v-2h-2z" fill="#43424A"/>
<path transform="translate(1136,507)" d="m0 0 2 2v7l-5 5-4 3-2-1 2-4-2-3 1-4z" fill="#FCFDFF"/>
<path transform="translate(1286,313)" d="m0 0h1v52h-1l-1-19-2-13v-7l2-3z" fill="#F5FFFF"/>
<path transform="translate(183,824)" d="m0 0h40v1l-5 1-1 2h-10l-3-1-21-1z" fill="#3B3F84"/>
<path transform="translate(279,982)" d="m0 0 3 4 7 11 12 16 8 8-2 1-8-7-11-14-9-16z" fill="#45444D"/>
<path transform="translate(690,314)" d="m0 0 4 3-1 9 1 6-1 9-1 3-1 6h-1z" fill="#F5FFFF"/>
<path transform="translate(167,1031)" d="m0 0 2 2v3h2l3 3 8 2 11 1 1 2-22 1-3-3-3-10z" fill="#42414E"/>
<path transform="translate(568,531)" d="m0 0h5l5 2v2l6 1 10 5 6 2 1 3-12-3-12-7-9-4z" fill="#F7FEFF"/>
<path transform="translate(1588,1029)" d="m0 0 2 2-6 7-10 7-12 5-1-2 8-4 8-6 5-2 4-6z" fill="#434358"/>
<path transform="translate(1502,1024)" d="m0 0 3 1 6 9 9 6 11 7-2 2-13-7-6-5-6-8z" fill="#434352"/>
<path transform="translate(1063,473)" d="m0 0 3 1-1 4-14 7-1-4 2-2h3l1-3z" fill="#FCFDFF"/>
<path transform="translate(808,909)" d="m0 0h15l-1 3-4 1h-11l-1 2h-2l1-5z" fill="#3E4065"/>
<path transform="translate(158,823)" d="m0 0 5 1 18 1v1l-21 1-7 6-1-3 4-6z" fill="#424252"/>
<path transform="translate(1540,949)" d="m0 0h13l10 2 2 4-7-1-3-2-16-1z" fill="#43435C"/>
<path transform="translate(1152,523)" d="m0 0h5v6l-2 6-4-3v-7z" fill="#F5FEFF"/>
<path transform="translate(422,1038)" d="m0 0 4 1v3h4v3h7v1h-15z" fill="#3D3F71"/>
<path transform="translate(848,512)" d="m0 0 7 6 17 8 1 2-9-3-12-6-5-4z" fill="#F7FEFF"/>
<path transform="translate(693,448)" d="m0 0 4 1 16 7 7 4-2 1-18-8-7-4z" fill="#F7FEFF"/>
<path transform="translate(1328,1028)" d="m0 0h3l-1 4-9 3-6-1v-1l5-1 1-2z" fill="#43424C"/>
<path transform="translate(1897,820)" d="m0 0 4 1-2 2-9 2-4 1-5 2-3-1 8-4z" fill="#46454C"/>
<path transform="translate(836,564)" d="m0 0h1v24h-1l-2-13 1-9z" fill="#F5FFFF"/>
<path transform="translate(754,408)" d="m0 0 9 1 13 6-3 1-11-4-7-1-2 1z" fill="#FDFDFF"/>
<path transform="translate(872,441)" d="m0 0 8 3 5 2v2h-6l-8-4z" fill="#F9FDFF"/>
<path transform="translate(547,520)" d="m0 0 6 1 6 3 1 2 5 1 1 3-15-6z" fill="#F7FEFF"/>
<path transform="translate(1874,828)" d="m0 0 3 1-1 2h-4l-1 3-5 2-3 2-3-1 10-7z" fill="#444353"/>
<path transform="translate(853,434)" d="m0 0h5l10 5 2 3-6-1-10-5z" fill="#F8FEFF"/>
<path transform="translate(1292,1147)" d="m0 0h11l6 2v1h-15z" fill="#43424F"/>
<path transform="translate(296,1010)" d="m0 0 4 2 9 9-2 1-8-7z" fill="#404162"/>
<path transform="translate(703,591)" d="m0 0 6 3 4 1v3l-6-1-5-3z" fill="#F8FDF8"/>
<path transform="translate(989,416)" d="m0 0h1l1 15 1 5-3 4z" fill="#F5FFFF"/>
<path transform="translate(1272,1073)" d="m0 0 4 1 1 3-4 1-1 5h-1v-9z" fill="#41414F"/>
<path transform="translate(877,458)" d="m0 0 5 1 10 5-3 1-12-5z" fill="#F8FEFF"/>
<path transform="translate(1347,1142)" d="m0 0m-2 0 2 1-1 3-8 2-2-2 7-3z" fill="#414155"/>
<path transform="translate(855,449)" d="m0 0 6 1 9 4-2 1-8-2-3-1v-2z" fill="#F7FEFF"/>
<path transform="translate(765,1039)" d="m0 0 11 3 2 2-2 1-10-3z" fill="#43435F"/>
</svg>
