<?xml version="1.0" standalone="no"?>
<!DOCTYPE svg PUBLIC "-//W3C//DTD SVG 20010904//EN"
 "http://www.w3.org/TR/2001/REC-SVG-20010904/DTD/svg10.dtd">
<svg version="1.0" xmlns="http://www.w3.org/2000/svg"
 width="900.000000pt" height="900.000000pt" viewBox="0 0 900.000000 900.000000"
 preserveAspectRatio="xMidYMid meet">

<g transform="translate(0.000000,900.000000) scale(0.100000,-0.100000)"
fill="#000000" stroke="none">
<path d="M3370 8974 c-474 -124 -906 -311 -1320 -571 -730 -459 -1327 -1123
-1702 -1893 -141 -289 -218 -492 -308 -811 l-40 -142 0 -1095 0 -1095 41 -145
c51 -184 98 -324 160 -482 187 -471 487 -963 818 -1340 87 -100 357 -370 451
-452 460 -400 1007 -712 1592 -909 l118 -39 1352 0 1353 0 130 44 c300 101
645 259 905 415 955 574 1673 1465 2029 2518 l51 152 0 1329 0 1328 -40 125
c-90 275 -255 645 -397 888 -75 129 -234 365 -318 476 -259 339 -577 656 -903
901 -469 354 -949 593 -1547 771 l-160 48 -1085 2 -1085 2 -95 -25z m-50
-3134 c12 -8 10 -10 -10 -11 -32 -2 -59 0 -88 7 -13 3 -21 1 -19 -3 8 -12
-254 -6 -267 7 -13 13 363 14 384 0z m2812 2 c-31 -9 -24 -28 8 -24 53 7 107
5 150 -6 l45 -11 -60 5 c-32 2 -71 7 -85 10 -20 4 -22 3 -10 -5 11 -8 -4 -10
-57 -7 -40 1 -78 8 -85 14 -18 14 -225 21 -225 7 0 -7 33 -9 94 -7 64 3 93 1
93 -7 0 -8 -42 -11 -135 -11 -83 0 -135 4 -135 10 0 6 6 10 14 10 8 0 18 4 21
10 4 6 -1 7 -12 4 -14 -5 -15 -4 -4 4 9 7 93 11 210 10 108 0 186 -3 173 -6z
m-418 -17 c-7 -16 -31 -19 -61 -8 -14 6 -11 9 17 14 19 4 38 7 42 8 4 0 5 -6
2 -14z m-2809 -8 c-21 -13 -115 -17 -115 -6 0 11 28 17 85 18 43 0 47 -1 30
-12z m520 3 c3 -5 -2 -10 -12 -11 -10 0 -47 -2 -83 -4 -41 -3 -57 -1 -45 4 11
4 25 6 31 4 7 -2 15 0 19 6 8 14 82 14 90 1z m-165 -10 c0 -5 -10 -10 -22 -10
-19 0 -20 2 -8 10 19 13 30 13 30 0z m2346 -8 c-3 -6 -16 -7 -29 -4 -22 6 -22
6 3 12 28 8 35 6 26 -8z m-2839 2 c-3 -3 -12 -4 -19 -1 -8 3 -5 6 6 6 11 1 17
-2 13 -5z m186 -1 c-7 -2 -21 -2 -30 0 -10 3 -4 5 12 5 17 0 24 -2 18 -5z m80
0 c-7 -2 -21 -2 -30 0 -10 3 -4 5 12 5 17 0 24 -2 18 -5z m464 1 c-3 -3 -12
-4 -19 -1 -8 3 -5 6 6 6 11 1 17 -2 13 -5z m67 -25 c-8 -13 -21 -11 -27 5 -4
10 0 12 14 9 10 -3 16 -9 13 -14z m2860 -9 c15 0 17 -3 9 -11 -8 -8 -17 -7
-34 5 -26 18 -54 22 -44 6 3 -5 15 -10 26 -10 10 0 19 -5 19 -11 0 -14 -52 -2
-62 14 -3 6 1 16 10 23 13 9 21 9 36 -2 11 -8 29 -14 40 -14z m-904 3 c0 -3
-7 -3 -15 1 -8 3 -18 -2 -23 -10 -5 -9 -15 -12 -26 -8 -16 6 -14 9 10 19 27
11 54 10 54 -2z m-1818 -39 c4 -3 8 -11 8 -17 0 -9 -2 -9 -8 -1 -7 12 -39 11
-50 -2 -4 -4 1 -5 10 -1 10 3 19 0 22 -9 3 -8 11 -14 18 -12 7 2 27 -7 43 -18
17 -12 35 -19 42 -17 6 2 14 -1 18 -6 7 -12 26 -15 24 -3 -3 19 3 20 21 5 11
-10 20 -23 20 -30 0 -6 10 -15 23 -19 21 -7 21 -7 2 -16 -14 -6 -8 -7 20 -4
34 5 45 1 75 -26 19 -17 34 -35 32 -40 -1 -5 2 -7 7 -4 13 8 122 -95 114 -107
-3 -6 -1 -7 4 -4 6 4 18 -5 28 -19 9 -14 29 -39 43 -55 41 -44 52 -58 52 -63
0 -2 17 -31 38 -63 55 -85 87 -148 128 -254 34 -88 83 -301 84 -361 0 -28 18
-39 24 -15 2 6 8 46 14 87 17 117 44 229 62 255 4 6 11 25 15 44 14 65 141
291 188 333 10 9 17 19 15 22 -5 9 106 126 120 126 7 0 11 4 8 9 -3 4 18 29
46 55 29 26 54 43 56 38 2 -6 12 -8 23 -5 13 4 18 11 14 23 -3 9 1 22 9 29 11
9 14 8 12 -5 0 -11 8 -18 24 -20 21 -3 22 -2 8 7 -10 5 -18 17 -18 25 0 8 5
12 11 9 6 -4 17 1 24 11 8 11 15 14 15 8 0 -5 -5 -15 -12 -22 -10 -10 -8 -16
6 -30 9 -9 16 -12 15 -7 -5 32 3 85 14 85 6 0 23 9 36 19 29 22 51 18 44 -10
-3 -10 -1 -19 5 -19 5 0 13 11 16 24 7 27 36 44 36 21 0 -19 13 -26 29 -15 8
4 10 13 6 21 -6 9 -10 8 -16 -7 -7 -17 -8 -17 -8 4 -1 24 -29 30 -49 10 -6 -6
-15 -9 -18 -5 -13 13 59 35 84 26 32 -12 34 -12 23 10 -9 15 -7 20 10 24 17 5
18 3 7 -11 -11 -13 -10 -15 10 -10 12 4 20 3 18 -1 -3 -4 10 -8 27 -9 18 -1
41 -2 52 -3 11 -2 197 -2 413 -1 297 2 391 5 386 14 -5 8 -2 9 12 3 10 -5 29
-9 42 -9 12 -1 22 -6 22 -12 0 -17 51 -37 63 -25 8 8 1 13 -21 17 -18 4 -32
10 -32 15 0 15 47 40 64 33 24 -9 20 -24 -5 -19 -12 3 -29 0 -38 -5 -10 -5 3
-7 39 -4 37 2 63 -1 80 -11 14 -8 33 -18 43 -21 20 -7 23 -24 5 -25 -9 0 -9
-2 1 -6 11 -5 11 -7 0 -14 -9 -5 0 -8 24 -7 36 1 37 2 17 13 -15 8 -19 15 -11
19 6 4 11 2 11 -3 0 -6 3 -10 8 -9 4 0 15 -2 25 -7 14 -6 15 -10 6 -15 -9 -6
-4 -16 17 -35 16 -15 28 -30 27 -34 -1 -4 8 -8 20 -8 20 -2 20 -1 5 8 -22 12
-23 29 -2 29 8 0 12 -4 9 -10 -4 -6 1 -7 11 -3 14 5 16 3 11 -11 -5 -14 -3
-17 8 -12 8 3 24 -4 35 -16 11 -12 20 -18 21 -12 0 5 4 0 8 -11 5 -11 14 -20
22 -20 9 0 14 -10 13 -27 -1 -15 3 -25 8 -22 4 3 5 10 2 16 -4 6 -1 8 7 6 8
-3 13 -12 11 -19 -2 -8 0 -11 4 -7 10 11 35 -12 27 -25 -3 -5 -1 -7 4 -4 12 7
39 -20 30 -29 -7 -8 -47 14 -47 26 0 6 -6 10 -12 10 -7 0 -1 -11 14 -24 l27
-24 -29 -32 c-18 -20 -33 -29 -41 -24 -7 4 -10 3 -6 -2 3 -6 2 -16 -4 -24 -6
-10 -9 -11 -9 -2 0 6 -4 12 -10 12 -5 0 -7 -6 -4 -13 3 -8 -38 -58 -100 -121
-102 -105 -105 -107 -117 -84 -7 13 -12 27 -11 31 1 5 -2 6 -7 2 -6 -3 -16 3
-23 15 -7 11 -18 20 -24 20 -6 0 -19 9 -30 21 -10 12 -30 27 -44 35 -14 7 -34
21 -45 29 -17 14 -18 17 -5 26 13 9 13 10 -1 6 -9 -3 -22 0 -29 6 -10 9 -11 9
-6 -1 4 -7 -21 3 -56 21 -35 19 -75 37 -90 41 -17 4 -28 13 -28 24 0 14 -2 15
-10 2 -7 -12 -14 -12 -43 -2 -18 7 -41 12 -50 12 -9 0 -17 4 -17 8 0 4 -62 9
-137 10 -133 2 -157 -1 -330 -41 -7 -2 -16 -6 -19 -10 -12 -12 -26 -8 -18 6 4
6 -1 5 -12 -4 -10 -9 -38 -26 -62 -38 -34 -17 -47 -19 -65 -11 -21 11 -21 10
-3 -4 19 -15 19 -16 0 -22 -10 -4 -34 -18 -52 -31 -17 -13 -37 -21 -44 -17 -6
4 -8 3 -5 -4 4 -5 -16 -29 -44 -52 -27 -24 -74 -71 -102 -105 -49 -59 -128
-178 -133 -200 -1 -5 -11 -30 -23 -55 -23 -53 -64 -227 -56 -241 4 -5 459 -9
1165 -9 l1159 0 6 -34 c8 -43 -10 -258 -30 -356 -102 -494 -462 -893 -946
-1048 -163 -52 -267 -65 -473 -59 -153 4 -197 9 -284 32 -292 76 -530 219
-718 434 -143 163 -247 351 -299 544 l-18 67 -44 0 c-27 0 -45 -5 -47 -12 -1
-7 -18 -60 -36 -117 -68 -208 -171 -374 -339 -542 -125 -124 -221 -194 -378
-272 -105 -53 -290 -110 -412 -128 -121 -17 -402 -6 -506 20 -273 68 -491 188
-680 375 -115 114 -192 220 -258 351 -103 208 -143 366 -154 607 l-6 138 1169
2 1169 3 -3 30 c-11 115 -69 267 -148 387 -41 63 -217 248 -235 248 -5 0 -32
15 -61 33 -60 37 -129 71 -173 85 -21 6 -29 15 -28 28 1 18 1 18 -11 2 -11
-15 -18 -16 -47 -7 -19 6 -41 14 -49 17 -26 13 -264 15 -321 3 -30 -6 -64 -12
-76 -14 -12 -2 -26 -6 -29 -10 -11 -10 -26 -9 -20 2 4 5 -3 7 -15 4 -16 -4
-17 -8 -7 -14 9 -6 7 -9 -9 -10 -13 -1 -29 -2 -35 -3 -7 -1 -15 -3 -18 -6 -14
-16 -102 -60 -95 -49 5 8 -3 5 -16 -7 -22 -19 -40 -32 -107 -76 -14 -9 -30
-14 -35 -11 -6 3 -7 2 -4 -4 3 -5 -18 -34 -48 -63 l-55 -54 -50 49 c-27 26
-47 52 -44 57 3 5 1 7 -4 6 -5 -2 -59 46 -120 107 -107 105 -110 110 -89 121
12 7 25 10 28 8 4 -2 13 4 20 14 13 15 12 16 -3 3 -40 -31 -13 17 29 53 19 16
25 17 38 6 9 -8 15 -9 14 -4 -1 5 0 12 1 17 1 4 3 13 4 20 1 6 9 11 18 11 10
-1 14 4 11 12 -3 8 9 20 31 31 20 9 36 20 36 25 0 4 4 8 10 8 5 0 7 -7 4 -15
-4 -8 -12 -15 -20 -15 -8 0 -11 -6 -7 -17 4 -11 8 -12 11 -5 2 7 10 12 18 12
8 0 14 9 14 20 0 13 7 20 20 20 11 0 20 4 20 9 0 5 -10 7 -22 5 l-23 -5 23 12
c12 7 22 16 22 21 0 4 5 8 11 8 6 0 9 -6 6 -13 -4 -10 4 -14 24 -14 34 0 38
12 7 21 -20 5 -12 12 52 45 70 35 161 67 118 41 -25 -15 -23 -33 2 -20 14 7
20 7 20 0 0 -5 7 -10 16 -10 9 0 12 5 8 12 -5 8 -1 9 17 2 13 -5 209 -9 435
-9 325 0 410 -3 407 -12 -3 -7 -1 -13 5 -13 16 0 21 38 6 44 -8 3 -14 11 -14
18 0 10 2 10 9 0 4 -7 12 -12 17 -11 24 4 36 -2 30 -17 -5 -12 -2 -15 10 -10
8 3 25 6 37 6 21 1 21 1 3 15 -10 8 -23 12 -27 9 -5 -3 -9 2 -9 10 0 14 7 13
52 -5 29 -11 56 -23 60 -25z m-1027 26 c-3 -5 -14 -10 -23 -9 -14 0 -13 2 3 9
27 11 27 11 20 0z m1117 -70 c20 -12 26 -20 17 -20 -9 0 -22 6 -28 14 -7 8
-21 12 -31 9 -11 -3 -20 0 -20 6 0 17 26 13 62 -9z"/>
<path d="M6060 5826 c0 -2 7 -7 16 -10 8 -3 12 -2 9 4 -6 10 -25 14 -25 6z"/>
<path d="M2601 5701 l-24 -18 26 0 c15 0 32 7 39 16 10 13 10 14 -2 4 -20 -18
-35 -16 -20 2 17 20 10 19 -19 -4z"/>
<path d="M2530 5701 c0 -5 7 -11 15 -15 9 -3 15 0 15 9 0 8 -7 15 -15 15 -8 0
-15 -4 -15 -9z"/>
<path d="M5440 5699 c0 -5 5 -7 10 -4 6 3 10 8 10 11 0 2 -4 4 -10 4 -5 0 -10
-5 -10 -11z"/>
<path d="M6510 5700 c-13 -8 -12 -10 3 -10 9 0 17 5 17 10 0 12 -1 12 -20 0z"/>
<path d="M3646 5692 c-3 -4 4 -9 15 -9 23 -2 25 3 4 10 -8 4 -16 3 -19 -1z"/>
<path d="M2465 5680 c-3 -5 -1 -10 4 -10 6 0 11 5 11 10 0 6 -2 10 -4 10 -3 0
-8 -4 -11 -10z"/>
<path d="M2490 5680 c0 -5 7 -10 15 -10 8 0 15 5 15 10 0 6 -7 10 -15 10 -8 0
-15 -4 -15 -10z"/>
<path d="M5258 5666 c-10 -7 -18 -17 -18 -21 0 -4 6 -2 13 4 8 6 17 8 20 4 4
-3 7 1 7 10 0 20 0 20 -22 3z"/>
<path d="M6565 5670 c-3 -6 -18 -8 -32 -5 -17 3 -23 1 -16 -6 5 -5 20 -11 33
-14 12 -2 20 -2 16 2 -3 3 -1 12 5 20 6 7 9 13 6 13 -3 0 -9 -5 -12 -10z"/>
<path d="M2545 5661 c-3 -5 -1 -12 5 -16 5 -3 10 1 10 9 0 18 -6 21 -15 7z"/>
<path d="M2658 5663 c6 -2 18 -2 25 0 6 3 1 5 -13 5 -14 0 -19 -2 -12 -5z"/>
<path d="M2510 5650 c-9 -6 -10 -10 -3 -10 6 0 15 5 18 10 8 12 4 12 -15 0z"/>
<path d="M5210 5619 c0 -5 5 -7 10 -4 6 3 10 8 10 11 0 2 -4 4 -10 4 -5 0 -10
-5 -10 -11z"/>
<path d="M2385 5600 c-3 -5 -1 -10 4 -10 6 0 11 5 11 10 0 6 -2 10 -4 10 -3 0
-8 -4 -11 -10z"/>
<path d="M3840 5569 c0 -5 5 -7 10 -4 6 3 10 8 10 11 0 2 -4 4 -10 4 -5 0 -10
-5 -10 -11z"/>
<path d="M3938 5568 c5 -5 16 -8 23 -6 8 3 3 7 -10 11 -17 4 -21 3 -13 -5z"/>
<path d="M5068 5503 c7 -3 16 -2 19 1 4 3 -2 6 -13 5 -11 0 -14 -3 -6 -6z"/>
<path d="M6842 5494 c10 -10 20 -16 22 -13 3 3 -5 11 -17 18 -21 13 -21 12 -5
-5z"/>
<path d="M6807 5489 c7 -7 15 -10 18 -7 3 3 -2 9 -12 12 -14 6 -15 5 -6 -5z"/>
<path d="M5005 5480 c-3 -6 1 -7 9 -4 18 7 21 14 7 14 -6 0 -13 -4 -16 -10z"/>
<path d="M5078 5483 c7 -3 16 -2 19 1 4 3 -2 6 -13 5 -11 0 -14 -3 -6 -6z"/>
<path d="M4091 5436 c-8 -10 -9 -16 -1 -21 5 -3 10 -5 11 -3 4 18 7 38 4 38
-1 0 -8 -6 -14 -14z"/>
<path d="M6885 5420 c3 -5 8 -10 11 -10 2 0 4 5 4 10 0 6 -5 10 -11 10 -5 0
-7 -4 -4 -10z"/>
<path d="M5005 5410 c-3 -5 -1 -10 4 -10 6 0 11 5 11 10 0 6 -2 10 -4 10 -3 0
-8 -4 -11 -10z"/>
<path d="M2105 5400 c-2 -4 1 -7 8 -7 7 0 17 -2 24 -4 6 -2 10 0 10 6 -2 11
-36 15 -42 5z"/>
<path d="M3356 5394 c-5 -14 -4 -15 9 -4 17 14 19 20 6 20 -5 0 -12 -7 -15
-16z"/>
<path d="M3430 5388 c0 -11 12 -10 30 2 12 7 10 9 -8 7 -12 0 -22 -5 -22 -9z"/>
<path d="M5600 5389 c-13 -9 -13 -10 0 -6 8 2 24 0 35 -6 18 -9 19 -9 6 6 -16
20 -21 20 -41 6z"/>
<path d="M6178 5393 c7 -3 16 -2 19 1 4 3 -2 6 -13 5 -11 0 -14 -3 -6 -6z"/>
<path d="M6913 5389 c9 -6 14 -15 11 -21 -4 -7 -2 -8 5 -4 14 9 -3 36 -23 36
-6 0 -3 -5 7 -11z"/>
<path d="M6278 5373 c7 -3 16 -2 19 1 4 3 -2 6 -13 5 -11 0 -14 -3 -6 -6z"/>
<path d="M4855 5331 c-3 -5 -2 -12 3 -15 5 -3 9 1 9 9 0 17 -3 19 -12 6z"/>
<path d="M6380 5316 c0 -2 9 -6 20 -9 11 -3 18 -1 14 4 -5 9 -34 13 -34 5z"/>
<path d="M2290 5210 c0 -5 5 -10 11 -10 5 0 7 5 4 10 -3 6 -8 10 -11 10 -2 0
-4 -4 -4 -10z"/>
<path d="M3743 5185 c0 -8 4 -12 9 -9 5 3 6 10 3 15 -9 13 -12 11 -12 -6z"/>
<path d="M2440 5150 c0 -5 5 -10 11 -10 5 0 7 5 4 10 -3 6 -8 10 -11 10 -2 0
-4 -4 -4 -10z"/>
<path d="M2252 4141 c-10 -6 -2 -29 32 -97 131 -259 367 -439 661 -504 28 -7
109 -11 180 -11 205 1 354 45 519 155 84 56 199 168 252 246 47 68 106 190
100 206 -5 12 -139 14 -868 14 -475 -1 -869 -4 -876 -9z"/>
<path d="M5069 4139 c-5 -3 6 -37 25 -76 114 -237 316 -414 566 -494 112 -36
225 -47 373 -37 312 21 604 222 752 517 20 40 35 77 32 84 -3 9 -206 12 -871
12 -477 0 -872 -2 -877 -6z"/>
</g>
</svg>
