<?xml version="1.0" encoding="UTF-8"?>
<svg version="1.1" viewBox="0 0 884 912" width="221" height="228" xmlns="http://www.w3.org/2000/svg">
<path transform="translate(0)" d="m0 0h884v912h-884z" fill="#020101"/>
<path transform="translate(429,7)" d="m0 0h30l31 2 28 4 28 6 22 6 24 8 24 10 25 12 20 11 22 14 14 10 13 10 14 12 8 7 15 14 7 7 7 8 10 11 13 17 12 16 12 19 11 19 13 25 12 29 11 33 7 28 4 19v5l-2 1-22 1h-65l-8-1-3 1-3-2-9-32-11-29-13-27-15-24-11-15-11-14-6-8-24-24-8-7-14-11-11-7-9-6-9-5v-2l-6-2-16-8-15-7-24-9-28-8-31-6-19-2-31-1-32 2-30 5-30 8-25 9-18 8-16 8-18 10-17 12-13 10-13 11-7 7-8 7-16 17-13 16-9 13-10 16-10 17-9 20-8 20-7 21-4 16-4 3h-87l-18-1-1-3 3-20 8-32 10-30 12-28 10-20 11-20 14-22 10-14 10-13 12-14 7-8 9-10 19-19 11-9 14-12 14-10 21-14 24-14 4-1v-2l5-2h3v-2l10-4 26-11 28-10 30-8 23-5 28-4 11-1z" fill="#FE1E13"/>
<path transform="translate(74,388)" d="m0 0h12l3 3v22l-1 23h2l3 7h3v-11l1-9 1-1h11l2 1v15l12-1 1-13 1-2 6 1 3 3 9-2 5 1 7 33 15 43 5 15-18 20-7 8-8 9-7 9-6 10-1 5 4 10 11 16 12 17 5 6 9 3 10-2 28-11 27-11h6l14 9 17 12 19 14 10 9v19l-3 20-1 14v20l5 5 21 10 26 8 10 1 7-4 11-17 8-13 10-16 8-11 7-4 8-1h22l32 1 9 2 6 7 15 26 12 23 5 5 9 3 16-4 31-12 10-4 4-2v-22l-1-17-2-20v-16l6-7 16-12 22-15 12-7 3-1h11l16 6 26 13 16 6 6-2 16-20 10-13 7-10 4-7-1-6-8-11-11-14-13-16-11-14-1-2v-7l5-13 15-42 2-13 2-3 1-15 1-1 10 1 5 1 1-4h5l3 3v12l11 1v-8l1-7 10-1 6 2v14l-1 5h5v-6l3-1v-47l14-1 4 3 1 6v8l11-4h9l1 2 1 24 2-1 1-12 1-1h9l1 2 1 15 3 5v17l-5 25-8 30-10 30-9 22-12 25-10 18-12 19-10 14-10 13-11 13-7 8-11 12-9 9-11 9-14 12-18 13-20 13-20 12-27 14-26 12-28 10-30 9-28 6-19 3-37 3h-20l-36-3-31-5-25-6-29-9-26-10-20-9-28-14-17-10-17-11-13-9-17-13-12-11-11-9-16-16-7-8-12-14-14-19-10-15-9-15-9-16-13-28-13-34-10-34-6-26-2-11v-11l2-10 1-2 1-12 1-3h8l1 1 1 13 3 1v-22l1-5h10l11 3v-11z" fill="#4C4D9F"/>
<path transform="translate(214,285)" d="m0 0 5 1 7 5 4 9 1 5v17l-3 17v22l3 12 2 16 5 14 15 36 4 8 7 6 16 10 13 10 4 2-11-23-10-19-10-18-8-16-2-6v-15l5-5 5-4h6l14 7 12 11 8 11 8 14 8 16 7 9 12 9 12 8 24 15 19 13 14 11 13 13 10 15 6 14 3 13 1 1 6-18 7-14 8-11 11-11 17-13 13-9 38-24 11-8 8-9 12-23 8-13 9-11 11-9 8-4 8-1 8 3 5 9v9l-5 13-11 21-10 18-16 32 10-6 15-11 12-8 5-5 13-33 7-16 4-19 3-19 1-4v-11l-2-7-1-8v-28l5-10 4-3 6-1 6 3 6 10 7 21 6 22v29l-2 24-3 19-9 30-11 33-9 22-4 6-9 10-17 17-14 11-10 9-11 9-26 22-8 7-11 10-8 7-10 11-2 5-1 13-3 5-6 5-5 1h-151l-5-2-5-6-1-12-4-10-9-11-13-12-11-10-14-11-12-11-10-8-13-11-11-9-12-11-16-16-7-11-7-18-12-36-8-26-3-11-2-37-2-9v-15l8-28 6-18 5-9z" fill="#FBA906"/>
<path transform="translate(434,28)" d="m0 0 35 1 34 4 26 5 20 5 36 12 21 9 17 8 22 12 19 12 19 14 14 11 13 11 6 5v2l4 2v2l3 1 7 8 8 8 9 11 2 4h2l12 16 10 14 8 13 9 15 12 22v2l-50 19-4-2-10-16-12-18-13-17-14-15-24-24-28-22-15-10-23-13-29-14-21-8-31-9-26-5-15-2-14-1h-56l-24 3-20 4-27 7-21 7-23 10-16 8-12 7-11 6-9 6-11 8-13 10-13 11-17 16-11 12-7 8-8 10-13 19-7 11-3 1-46-18-14-5-2-3 9-15 11-17 12-17 8-10 9-11 15-16 19-19 8-7 13-11 16-12 16-11 22-13 27-14 29-12 34-11 26-6 15-3 33-4z" fill="#FEFEFC"/>
<path transform="translate(429,7)" d="m0 0h30l31 2 28 4 28 6 22 6 24 8 24 10 25 12 20 11 22 14 14 10 13 10 14 12 8 7 15 14 7 7 7 8 10 11 13 17 12 16 12 19 11 19 13 25 12 29 11 33 7 28 4 19v5l-2 1h-6l-2-3-8-37-7-23-9-26-10-24-8-16-12-22-10-16-12-17-13-16-8-10-9-10-12-13-8-8-8-7-11-10-26-20-24-16-25-14-25-12-28-11-26-8-32-8-23-4-27-3-15-1h-37l-22 1-33 5-24 5-22 6-27 9-26 11-30 15-22 13-22 15-17 13-10 8-5 5-10 9-8 7-10 10-7 8-2 3h-2l-2 4-11 13-13 18-8 12-11 18-11 20-11 23-12 31-9 28-7 30-2 13-3 2-5-1 3-22 8-32 10-30 12-28 10-20 11-20 14-22 10-14 10-13 12-14 7-8 9-10 19-19 11-9 14-12 14-10 21-14 24-14 4-1v-2l5-2h3v-2l10-4 26-11 28-10 30-8 23-5 28-4 11-1z" fill="#FEFEFC"/>
<path transform="translate(323,244)" d="m0 0 5 1 8 9 15 25 6 8 10 8 10 4h9l14-7 10-8 12-12 8-7 6-5 4-2h4v25l-15 14-12 12-11 9-14 13-8 7-11 11-11 9-14 13-8 7-3 2-1-1v-9l3-19v-25l-5-22-5-15-13-29v-9l5-6z" fill="#E5126C"/>
<path transform="translate(560,244)" d="m0 0 8 1 4 3v8l-4 11-10 24-6 20-3 18v26l2 7 1 16-5-1-11-11-8-7-10-9-12-11-10-9-13-12-8-7-13-12-12-11-4-5v-3h-2l-1-18 2-4 8 3 13 11 15 15 12 8 10 4h11l10-5 3-1 2-4 8-10 10-17 9-14z" fill="#0C0B67"/>
<path transform="translate(62,302)" d="m0 0 18 6 39 15 4 2-1 5-7 21-5 18h-64l1-10 5-23 8-31z" fill="#FFFFFD"/>
<path transform="translate(423,376)" d="m0 0h31l17 1 2 2-1 5-3 2 2 2v33l2 5 2 1v7l-2 3-6-1h-49l-1-4 2-5v-40l1-2-4-2 1-5z" fill="#171570"/>
<path transform="translate(429,102)" d="m0 0h39l17 1 36 6 23 6 26 9 23 10 23 12 21 13 18 13 11 9 12 11 29 29 11 14 10 13 11 17 7 12-1 3-4-2-11-18-14-20-11-13-9-10-7-8-11-11-2-1v-2l-4-2-13-12-12-9-13-9-16-10-14-8-15-8-21-9-21-7-30-8-29-5-17-1h-46l-22 2-28 5-26 7-18 6-24 10-27 14-22 14-12 9-14 11-10 9h-2v2l-8 7-11 11-7 8-13 16-12 17-7 11-3 2-3-2 2-5 11-16 7-9 11-14 13-14 6-7h2l1-3 8-7 11-10 16-12 18-13 28-16 23-11 20-8 23-7 26-6 15-3z" fill="#FFFFFD"/>
<path transform="translate(346,51)" d="m0 0h13l5 2 2 3-18-1-7 2-4 5-1 7 24-6 28-5 29-3h10l4 1 7-1v3l-1 1h-6l1 4 2 32-4 1-1-1-1-24-1-12-23 1 2 6v13l1 8v9l-3-2-2-6-5-3-8-2-5-3 1-5 4-5 9-4h2v-6l-25 5 1 10 4 20-1 4h-2l-2-7h-7v3l-10 1-5-1v-3l14-1 4-2h3l-3-14h-4l-10 6-1 4h11l2 2-3 1h-14v-7l5-5 6-4 7-2v-4l-7 1-22 6 3 12 5 16v7h-3l-6-21-4-12h-7l6 21 4 12v3l-4 1-3-9-7-24v-2l-15 5v4l11 6 6 12 1 8-4-1-5-14-4-4-6-3-2-4h-8l1 9h9l5 4 2 3v7l-5 6-2 1h-8l-9-5-5-6 2-2 3 2v2l8 4h7l4-2v-7l-4-2h-11v-12l-15 5-2-1 1-3 18-7 11-4v-2h-9l-4 1h-8l-1-1 1-7 6-5 11-4 11-1 6 4 4 5 1 3h7l-2-8 3-6 5-4z" fill="#2D3AC1"/>
<path transform="translate(560,244)" d="m0 0 8 1 4 3v8l-3-4-4-2-1 5-4 1 1-3-6 2-5 8-3 8h-2l-2 7-5 5-9 11-10 8-12 2-6-1-12-4-5 2-4 2-6-1 7 8 2 4 4 2v2l4 2v2l4 2v2l4 2 6 5v2l4 2 10 9 2 1v2l6 3v2l4 2 1 2 7 1 1-7 4-8 1-4v-20l5-10 3-9 1 4-2 6-3 18v26l2 7 1 16-5-1-11-11-8-7-10-9-12-11-10-9-13-12-8-7-13-12-12-11-4-5v-3h-2l-1-18 2-4 8 3 13 11 15 15 12 8 10 4h11l10-5 3-1 2-4 8-10 10-17 9-14z" fill="#0B0753"/>
<path transform="translate(825,320)" d="m0 0 2 1 7 30 2 10v8l-48 1-3-1-3-10-5-17v-4l22-8 23-9z" fill="#FFFFFD"/>
<path transform="translate(527,48)" d="m0 0h9l10 4 6 4 3 4-1 3-8-6-7-4-10-1h-2l-2 4-1 5 31 7 23 7 20 8 10 5 10 4 18 8 14 8-1 3-4-1-5-2-2 6-8 17-4 6h-2l1-7 3-11-6-10-7-2-3 9h4l2-5 1 2h2l1 5-2 2h-8l-3-2v-7l6-7 4-1 5 3 5 6 2 5 5-8v-4l-17-8-8-2-3 9-9 21-4 2 1-7 7-17 3-6v-5l-8-4h-1l-4 13-6 16-3 2-1-10-5-7v-2l-5-2-6-3-2-3h13l2-5v-5l-19-7-14-4-18-4-5-1-5 32-1 2h-4l2-15 4-21h-9l-2 16-1 16-4-2-2-9 3-9 1-13-10-2-27-3v-3h13l39 5v-6l4-5z" fill="#3242C3"/>
<path transform="translate(250,106)" d="m0 0h1v10l14 25-1 4-4-4-6-11-7-10-2-3-7-1 3 7 6 9 7 10 1 6-4-3-4-1h-12l-9 4h-3l1-4 4-3v-10l-6-1-12 7 4 7 13 16 5 6-1 3-4-2-8-9-12-16-5 2-12 11-13 12-3 2 1 4 8 7 13 11v4l-4-2-10-9-3-2v-2l-5-2-4-1-8 6-3 7 6-1 5-2 7 1 3 3v7l-2 4-4 1 1-11-9 1-4 5h-2l-6-8 2-6 7-8 5-6 7-8 11-11 8-7 9-7-4-4-7-1-8 3-7 5-4 5v3l7-2 7-5h5v3l-9 4-8 5-6-2v-7l7-8 9-6 5-2h9l6 5v2l17-12 15-10 12-6z" fill="#2C33B5"/>
<path transform="translate(109,821)" d="m0 0 17 1 10 2 6 4 4 5 2 7v12l-4 10-7 6-6 2-10 1h-13v-49z" fill="#4B4C9F"/>
<path transform="translate(469,384)" d="m0 0h3l1 10 1 28 4-2 6-5 5-2h11l8 4 6 7 2 4v13l-4 8-7 7-8 3h-9l-8-4-6-7-3-6v-5l3-3 1-7-4-2-1-9v-28l-2-3z" fill="#020101"/>
<path transform="translate(692,137)" d="m0 0 4 2 11 9 16 15 9 9 7 8 10 11 14 19 8 11 3 4v3l-5-2-4-2-7 6-11 7-6 4-3-1 1-3 5-3 2-4 9-4 8-6-2-6-2-5h-3l-8 16-2 3v-4h-8l-3-2-1-5 4-6 11 2 3-4v-6l-4-6-4-1-7 7-8 7h-2v2l-4 3-4-1 1-3 8-7 1-4-3-7-5 3-6-1-4-5v-2l4 1 2 2 5-1 6-15-1-3-4-3-3 1-8 10-5 4-5 7h-4l2-5 1-6-3-2-11-2-5-7-1-3v-12l1-2h3l1 15 2 5 7 2 5-3 3-4 1-7-6 3-5 1-1-4 5-4 7 1 4 4-1 9-4 6 1 4 4-2 6-8 4-3-2-5-5-4v-2l-4-2-11-10-4-4z" fill="#3B45B5"/>
<path transform="translate(451,821)" d="m0 0 4 2 8 26 2 6 2-2 6-21 4-11h11l1 1v47l-2 2h-7v-27l-2 1-8 24-2 2h-5l-3-5-6-17-1-1-1 2-1 21h-8l-1-1v-48z" fill="#424292"/>
<path transform="translate(452,23)" d="m0 0h11l41 4 28 6 21 5 26 8 32 13 25 12 19 11 27 18 13 10 14 11 12 11 4 3v2l4 2 12 12 7 8 13 15 10 13 7 10 10 15 5 7 5 10 11 19 1 7-5-1-8-16-11-19-9-14-12-17-11-14-11-13-11-12-20-20-14-11-15-12-13-9-15-10-19-11-23-12-26-11-32-11-33-8-31-5-39-4z" fill="#FFFFFD"/>
<path transform="translate(733,821)" d="m0 0h10l3 3 8 25 2 5 2-3 7-22 2-7 4-1 2 1 6-1v48l-1 2h-7l-1-3 1-26 1-2h-2l-3 10-7 19-2 2-5-1-4-8-6-16-1-2v25l-2 2h-6l-1-1z" fill="#4142AD"/>
<path transform="translate(85,248)" d="m0 0 6 1 47 18 10 4-2 5-7 14-6-1-34-13-20-8-3-2 1-4 7-13z" fill="#FFFFFD"/>
<path transform="translate(417,99)" d="m0 0h56l22 2 19 3 2 1v2h-11l-20-3-17-1h-39l-32 3-29 6-23 6-22 8-25 11-19 10-20 12-28 21-14 12-8 7-5 5-11 12-7 8-1-3 4-7 12-13 8-8 8-7 9-8 17-13 14-10 14-9 11-6 16-8 17-8 24-9 30-8 18-4 19-3z" fill="#FB211D"/>
<path transform="translate(804,388)" d="m0 0h6l4 3 1 6v8l11-4h9l1 2 1 24 2-1 1-12 1-1h9l1 2 1 15 3 5v17l-3 16h-1l-1-10v-28l-4-1-1-2-6 2h-11l-6-2-3 3-1 8-7-2-2-6-2-22-3-10-1-6-4 1-1 40-2 3v-47z" fill="#424290"/>
<path transform="translate(72,275)" d="m0 0 6 1 48 19 7 3-2 9-4 9-7-1-39-15-15-6-1-3 6-15z" fill="#FFFFFD"/>
<path transform="translate(420,23)" d="m0 0h11l-1 2-31 3-28 4-36 8-26 8-31 12-16 8-21 11-18 11-15 10-16 12-11 9-14 12-18 18-7 8-8 8-11 14-6 8-14 20-11 18-6 10-4 1-1-3 8-14 12-18 13-18 13-16 7-8 9-9 7-8 13-13 8-7 14-12 19-14 15-10 17-10 18-10 27-13 27-10 18-6 23-6 30-6 16-2z" fill="#FFFFFD"/>
<path transform="translate(301,821)" d="m0 0h6l5 5 10 14 7 12 2 1-1-8v-22l7-2 2 1 1 9v38l-1 2h-7l-6-7-14-21-2-2-1 30h-8l-1-2v-47z" fill="#4B4C9E"/>
<path transform="translate(805,264)" d="m0 0 3 3 6 16v2l-38 14-9 4-5-1-7-16 1-3 27-10z" fill="#FFFFFD"/>
<path transform="translate(310,59)" d="m0 0h6l6 4 4 5 2 5v10l-2-1-1-5-15 5v4l11 6 6 12 1 8-4-1-5-14-4-4-6-3-2-4h-8l1 9h9l5 4 2 3v7l-5 6-2 1h-8l-9-5-5-6 2-2 3 2v2l8 4h7l4-2v-7l-4-2h-11v-12l-15 5-2-1 1-3 18-7 11-4v-2h-9l-4 1h-8l-1-1 1-7 6-5 11-4z" fill="#2E3AC0"/>
<path transform="translate(814,293)" d="m0 0h4l5 14v5l-26 10-21 8-3-1-5-13v-5l28-11z" fill="#FFFFFD"/>
<path transform="translate(650,821)" d="m0 0h11l7 3 5 5 2 3v4h-7l-7-5h-10l-4 1 2 6 16 4 7 4 4 6-1 9-4 6-8 4h-13l-6-3-7-8-1-6 5-1 5 3 5 5 4 2h6l5-3 1-6-7-3-16-5-5-4-2-5 1-6 4-6z" fill="#424291"/>
<path transform="translate(352,821)" d="m0 0 7 1 1 1v29l2 7 5 3h9l3-2 1-38h11v34l-3 8-7 6-3 1h-15l-7-4-4-7-1-4v-33z" fill="#4B4C9E"/>
<path transform="translate(560,821)" d="m0 0h5l3 5 8 19 9 23v3h-8l-5-8-2-6-3-1h-12l-4 7-2 5-3 3h-6l1-7 11-31 6-11z" fill="#4142AA"/>
<path transform="translate(603,821)" d="m0 0h12l6 3 7 8v4h-6l-8-5h-10l-5 1 2 5 7 3 12 3 6 4 3 4v9l-3 5-9 6h-14l-6-3-6-7-1-7h8l3 5 8 4 7-1 4-1 1-8-17-4-10-5-2-2v-12l5-6z" fill="#4142A9"/>
<path transform="translate(172,821)" d="m0 0h6l3 4 11 27 6 16v3h-7l-5-8-3-6v-2l-15 1-7 14-1 1h-7l1-6 8-22 8-20z" fill="#4142AA"/>
<path transform="translate(700,821)" d="m0 0h5l4 5 11 26 6 16v3h-7l-4-5-4-9v-2l-15 1-7 14-1 1h-6l-1-4 8-21 5-13 4-10z" fill="#4142AB"/>
<path transform="translate(74,388)" d="m0 0h12l3 3v22l-1 23h-1l-2-29 1-11-2-3h3v-3l-5 1-7-2v4h3l-1 2-3 41-6 2-1 2-3-1v-7l-10-3-4-2-2 1v-22l1-5h10l11 3v-11z" fill="#41418F"/>
<path transform="translate(524,36)" d="m0 0h10l24 6 32 11 27 12 25 13 22 14 13 9 12 9 20 16 10 9 22 22 7 8 3 7v3h-2l-8-10-12-13-5-5-6-7-8-7-10-9-14-11-19-14-19-12-18-10-19-10-17-7-11-5-37-12-22-5z" fill="#FC2717"/>
<path transform="translate(377,244)" d="m0 0 7 1 8 5 5 6 1 2v7l-3 7-7 6-4 2h-9l-10-9-2-4v-10l6-8 5-4z" fill="#E5126D"/>
<path transform="translate(504,245)" d="m0 0h8l7 4 4 5 1 2v12l-6 8-4 3-9 1-6-3-7-8-1-3v-7l3-6 4-5z" fill="#0C0B65"/>
<path transform="translate(430,22)" d="m0 0h23l-1 3 20 1 33 4 25 5v1l-10 1-32-5-19-2-35-1-23 1-39 5-27 6-27 8-23 8-3 1v-2l-4-1 21-8 30-9 32-7 28-4 31-3z" fill="#FE2811"/>
<path transform="translate(250,106)" d="m0 0h1v10l14 25-1 4-4-4-6-11-7-10-2-3-7-1 3 7 6 9 7 10 1 6-4-3-4-1h-12l-9 4h-3l1-4 4-3v-10l-6-1-12 7h-2l-1-3 18-13 14-9 10-5z" fill="#3040C5"/>
<path transform="translate(417,55)" d="m0 0h10l4 1 7-1v3l-1 1h-6l1 4 2 32-4 1-1-1-1-24-1-12-23 1 2 6v13l1 8v9l-3-2-2-6-5-3-8-2-5-3 1-5 4-5 9-4h2v-6l-25 5-2 4-1-6h-7v-1l23-4z" fill="#252FC3"/>
<path transform="translate(201,821)" d="m0 0 9 1 7 8 7 10 8-11 5-7 5-1h5l-1 5-7 9-9 14-2 21-1 1h-7l-1-18-5-10-13-19z" fill="#4243AC"/>
<path transform="translate(417,384)" d="m0 0 4 1-1 2v41l-2 5v3l5-1 2 2h-4l-1 7-4 8-5 4-8 3h-7l-10-4-7-8-3-5v-11l5-10 7-6 4-2h13l12 7zm-21 33-8 4-6 7-2 5v7l5 8 3 3 8 3h8l6-3 4-5 2-4v-5l-1-1-19-1 1-2 5-1 14 1 1-4-7-8-5-3z" fill="#0C0A60"/>
<path transform="translate(402,821)" d="m0 0h8l2 2v38l21 1 1 1v7l-1 1h-31l-1-1v-46z" fill="#424291"/>
<path transform="translate(733,821)" d="m0 0h10l3 3 8 25 2 5 2-3 2-2-1 6-3 3-3-1-1-2h-2l-2 4-5-13-1-2v25l-2 2h-6l-1-1z" fill="#4243A7"/>
<path transform="translate(469,384)" d="m0 0h3l1 10 1 28 4-2 6-5 5-2h11l8 4 6 7 2 4v13l-4 8-7 7-8 3h-9l-8-4-6-7-3-6v-5l3-3 1-7-4-2-1-9v-28l-2-3zm20 34-8 4-5 6v5 2l-1 4 3 7 5 5 6 3h10l8-6 4-8 1-8-3-6-7-7-2-1z" fill="#0C095F"/>
<path transform="translate(116,830)" d="m0 0h12l7 3 3 4v18l-3 5-9 3h-10l-1-1v-29z" fill="#020105"/>
<path transform="translate(527,48)" d="m0 0h9l10 4 6 4 3 4-1 3-8-6-7-4-10-1h-2l-2 4-1 5 18 4v3h-9l-9-2-5 32-1 2h-4l2-15 4-21h-9l-2 16-1 16-4-2-2-9 3-9 1-13-10-2-27-3v-3h13l39 5v-6l4-5z" fill="#303EC1"/>
<path transform="translate(451,821)" d="m0 0 4 2 8 26 1 6-2-1-2-3-1-1v7l1 3-2 1-4-12-1-1-1 2-1 21h-8l-1-1v-48z" fill="#424290"/>
<path transform="translate(417,99)" d="m0 0h56l22 2 19 3 2 1v2h-11l-20-3-17-1h-39l-32 3-29 6-23 6-14 5-4-1 11-4 8-2v-3l31-8 29-5z" fill="#F01B42"/>
<path transform="translate(692,137)" d="m0 0 4 2 11 9 16 15 9 9-1 2-3-3-4-1h-4l-8 10-5 4-5 7h-4l2-5 1-6-3-2-11-2-5-7-1-3v-12l1-2h3l1 15 2 5 7 2 5-3 3-4 1-7-6 3-5 1-1-4 5-4 7 1 4 4-1 9-4 6 1 4 4-2 6-8 4-3-2-5-5-4v-2l-4-2-11-10-4-4z" fill="#3A46B8"/>
<path transform="translate(675,207)" d="m0 0 4 1 5 6 4 3v2h2l3 5 12 14 8 10 7 10 7 11 12 21 10 21 10 27 7 24 1 7h-4l-9-32-11-29-13-27-15-24-11-15-11-14-6-8-12-12z" fill="#FFFFFD"/>
<path transform="translate(151,188)" d="m0 0h1v10l11 9 12 8v3l-5-1-8-4-9-1 1 4 4 4-1 7-2 2-6 1-6-4-1-2v-6l4-6 5-3 5-1-1-3-6-4-3 1-13 18-5 1 1-5 10-13 8-10z" fill="#3242C2"/>
<path transform="translate(432,369)" d="m0 0h39l2 3v7l-2-1-22-1h-26l-6 2v5h-21l-1-4 3-2 18-1 3-6 1-1z" fill="#0B0753"/>
<path transform="translate(753,422)" d="m0 0h5l3 3v12l11 1v-8l1-7 10-1 6 2v14l-1 5h5v-6h3l-2 7-5 1-12-1-4-3-12-2-2-3v-9l-3-2-6 3-7 1-2 1v-2h-2l-1 9-2 2v-14l1-1 10 1 5 1z" fill="#424290"/>
<path transform="translate(109,821)" d="m0 0 17 1 10 2 6 4 4 5 1 6-1 1v8l-3 5-2 1-6 10-9-1 4-2 5-2 2-4v-18l-5-5-16-2-4-1v-5l-1 4-1 5-2 4v-15z" fill="#4A4B9F"/>
<path transform="translate(612,91)" d="m0 0 9 2 23 11 6 4-1 3-4-1-5-2-2 6-8 17-4 6h-2l1-7 3-11-6-10-7-2-3 9h4l2-5 1 2h2l1 5-2 2h-8l-3-2v-7l6-7 4-1 5 3 5 6 2 5 5-8v-4l-17-8-8-2z" fill="#3544C0"/>
<path transform="translate(197,149)" d="m0 0 6 2 10 11v2h2l5 6-1 3-4-1h-8l-11 3-7 2-1-1 1-9 4-8 4-5z" fill="#3841B5"/>
<path transform="translate(186,151)" d="m0 0h3l-1 3h-2v3l-5 2-3 7-4 3 1 4 8 7 13 11v4l-4-2-10-9-3-2v-2l-5-2-4-1-8 6-3 7 6-1 5-2 7 1 3 3v7l-2 4-4 1 1-11-9 1-4 5h-2l-6-8 2-6 7-8 5-6 7-8z" fill="#303EC1"/>
<path transform="translate(301,821)" d="m0 0h6l2 2h-2l5 8 1 5 4 2 4 7-4-1-4-2-5-6v29l-2 4h-6v-47z" fill="#4142AB"/>
<path transform="translate(506,251)" d="m0 0 5 1 4 2 1 3v10l-4 4-6 1-1 2 4 2 6-1v-2l5-2v3l-6 5-9 1-6-3-7-8-1-3v-7h1l1 8h2v2l7 1-3-7 1-6z" fill="#0B0753"/>
<path transform="translate(54,299)" d="m0 0h4l-2 10-8 30-6 30-5 1-1-1 1-10 7-32 8-26z" fill="#FFFFFD"/>
<path transform="translate(286,56)" d="m0 0h6l-1 3-21 9-27 14-21 13-17 12-4 3h-3l2-4 5-5 15-10 13-8 21-12 17-9z" fill="#F31C39"/>
<path transform="translate(669,846)" d="m0 0 4 1 3 5-1 9-4 6-8 4h-13l-6-3-7-8-1-6 5-1 5 3 5 5 9 3-2 2h2l6-2 2-5 1-7-2-1v-4z" fill="#4B4C9E"/>
<path transform="translate(380,822)" d="m0 0h11v34l-1-3-3-1-1-9-3-3-1 7 2 3 4 7-4 4h-3l-2 5-7 1-3-2-2-2 9-1 3-2z" fill="#424290"/>
<path transform="translate(423,376)" d="m0 0h31l17 1 2 2v4l-56 1-1-5 2-2z" fill="#743A74"/>
<path transform="translate(529,72)" d="m0 0 3 2 2 16 4 9 6 3h6l4-2 2-4 1-8-9 1 2-2h3l-2-6-3-1-6 1v-4l1-2 7 1 6 4 3 1 2 7v9l-4 6-7 4-8-1-6-3-4-5-3-8-1-15z" fill="#3543BF"/>
<path transform="translate(400,64)" d="m0 0h1l2 6 1-6 2 2v13l1 8v9l-3-2-2-6-5-3-8-2-5-3 1-5 4-5 9-4h2z" fill="#2B33BD"/>
<path transform="translate(623,848)" d="m0 0 5 1 1 2v9l-3 5-9 6h-14l-6-3-6-7-1-7h8l3 5 8 4h7l-1 2-5 1 1 1 9-3 3-4 2-2-3-5z" fill="#4243A7"/>
<path transform="translate(712,840)" d="m0 0h3l6 15 5 13v3h-7l-4-5-4-9v-2l-15 1-7 14-1 1h-6l-1-4 2-1 1 3 3-3 4-5 1-5h2l2-7 14 2 2-2 1-2 1 3h2z" fill="#4B4B9E"/>
<path transform="translate(98,422)" d="m0 0h11l2 1v15l13-1v2l-12 2-5 3-15 1-1-4 2 2h3v-11l1-9z" fill="#424290"/>
<path transform="translate(833,316)" d="m0 0 3 1 6 21 5 23v8l-5 1-2-5-5-26-5-19v-3z" fill="#FFFFFD"/>
<path transform="translate(352,821)" d="m0 0 7 1 1 1v23h-1l-1 12 1 6 3 1-2 1-2-1 1 3-4-2-3-6-1-4v-33z" fill="#4142A8"/>
<path transform="translate(408,841)" d="m0 0h2v20l23 1 1 1v7h-27v-2h-3v-11l2-9h2l-1-4z" fill="#4C4DA0"/>
<path transform="translate(777,821)" d="m0 0h2v48l-1 2h-7l-1-3 1-26 2-3 1 1v-16z" fill="#4A4A9C"/>
<path transform="translate(346,51)" d="m0 0h13l5 2 2 3-18-1-7 2-4 5-1 7 3 1-4 2 2 1-1 2h-7l6 21 4 12v3l-4 1-3-9-5-18v-13l7-1-2-8 3-6 5-4z" fill="#3840B9"/>
<path transform="translate(371,31)" d="m0 0 4 2-3 2-27 6-27 8-23 8-3 1v-2l-4-1 21-8 30-9z" fill="#FC251A"/>
<path transform="translate(642,835)" d="m0 0 4 1 1 2 21 5 3 3-4 1v3l2 1 1 6-4 8-8 3-1-3 9-5 1-6-7-3-16-5-4-6v-4z" fill="#4242AB"/>
<path transform="translate(737,829)" d="m0 0h1l1 9v2l3 9v20l-2 2h-6l-1-1v-34l2-1z" fill="#4C4DA0"/>
<path transform="translate(524,36)" d="m0 0h10l24 6 32 11 15 7-1 2-7-1-14-6-37-12-22-5z" fill="#F11842"/>
<path transform="translate(308,63)" d="m0 0h7l5 2 3 5-1 4-6 2h-5l-2-3-11 1-7 1 1-5 8-5z" fill="#FFFFFD"/>
<path transform="translate(682,152)" d="m0 0h3l1 15 2 5 7 2 5-3 3-4 1-7-6 3-5 1-1-4 5-4 7 1 4 4-1 9-4 6 1 4 1 2h-3l-4-4-11-2-5-7-1-3v-12z" fill="#4B4DA2"/>
<path transform="translate(704,123)" d="m0 0 4 2 12 11 21 21 7 8 3 7v3h-2l-8-10-12-13-5-5-6-7-8-7-4-4z" fill="#FB221C"/>
<path transform="translate(239,821)" d="m0 0h8l-1 5-7 9-8 12-7 3-3-1 1-2h2v-4h2l1-7 7-10z" fill="#4142AC"/>
<path transform="translate(487,65)" d="m0 0h6l6 5v13l-6 5-3 1h-7l-6-3-6-8-2-4v-3l4 2 5 8 4 3h9l3-3 1-8-1-4h-5l-2 7-5-1 1-7z" fill="#3343C2"/>
<path transform="translate(471,847)" d="m0 0 3 1 1 6-5 15-2 2h-5l-3-5-2-9v-9l4 2 1 4 3 1z" fill="#4142AD"/>
<path transform="translate(298,86)" d="m0 0h1l1 9h9l5 4 2 3v7l-5 6-2 1h-8l-9-5-5-6 2-2 3 2v2l8 4h7l4-2v-7l-4-2h-11v-12z" fill="#303ABD"/>
<path transform="translate(126,327)" d="m0 0 5 1-1 5-7 24-4 12-4 1-1-4 8-28 3-10z" fill="#FFFFFD"/>
<path transform="translate(510,248)" d="m0 0 5 1 4 2 5 10v7l-4 4-5 1v2l-6 2h-2v-2l-3-1 2-3 7-2 2-2v-13l-6-2v-3z" fill="#0C0B67"/>
<path transform="translate(310,59)" d="m0 0h6l6 4 4 5-2 5-2-3-2-5-5-1h-7l-10 3-6 4-1 4 14-3 5 1 1 3 4 1h-5l-1-1h-9l-4 1h-8l-1-1 1-7 6-5 11-4z" fill="#313FBF"/>
<path transform="translate(151,209)" d="m0 0 5 1-3 2 1 4 4 4-1 7-2 2-6 1-6-4-1-2v-6l4-6z" fill="#4D4EA0"/>
<path transform="translate(453,371)" d="m0 0 18 1 1 6-23-1h-31l4-4 19-1z" fill="#0D0C68"/>
<path transform="translate(233,175)" d="m0 0h2v2l-10 8-12 11-11 10-7 8-9 10-1-3 4-7 12-13 8-8 6-3 7-7 4-2z" fill="#FB221B"/>
<path transform="translate(768,821)" d="m0 0 5 1 4-1-2 3v17l-5-1-2 8h-2l1-6-5-1 2-9 3-10z" fill="#4142A0"/>
<path transform="translate(427,408)" d="m0 0h13l1 1v12l-1 1h-13l-1-2v-10z" fill="#FFFFFD"/>
<path transform="translate(337,823)" d="m0 0h2l1 8v38l-1 2-3-1v-16h2l-2-4h-3l-1 3 1-8v-4h2v-10z" fill="#4D4EA0"/>
<path transform="translate(250,106)" d="m0 0h1v10l14 25-1 4-4-4-6-11-7-10-2-3-7-1-1 3-1-5 13-7z" fill="#3440BD"/>
<path transform="translate(449,408)" d="m0 0h12l1 1v12l-5 1h-8l-2-2v-10z" fill="#FFFFFD"/>
<path transform="translate(320,847)" d="m0 0 4 4v3h2l1 2 2-1 4 2-1-4 1-3 4-1 1 5h-2l1 7v10h-5l-6-7-5-9v-3z" fill="#4142B0"/>
<path transform="translate(232,121)" d="m0 0h3l6 8 6 10v1h-12l-4-4v-6l-4-3 2-4z" fill="#FFFFFD"/>
<path transform="translate(730,179)" d="m0 0 5 1 8 10-1 4-8 6-3-1-2-7-1-1v-7z" fill="#FFFFFD"/>
<path transform="translate(449,388)" d="m0 0h12l1 1v12l-1 1h-12l-1-1v-12z" fill="#FFFFFD"/>
<path transform="translate(427,388)" d="m0 0h13l1 2v10l-1 2h-12l-1-1z" fill="#FFFFFD"/>
<path transform="translate(738,211)" d="m0 0 11 2 2-2 3 2-6 12-2 3v-4h-8l-3-2-1-5z" fill="#4F50A1"/>
<path transform="translate(256,845)" d="m0 0h31v5l-2 1h-28l-1-1z" fill="#494A9D"/>
<path transform="translate(764,216)" d="m0 0 8 6 2 3v3l-5-2-4-2-7 6-11 7-6 4-3-1 1-3 5-3 2-4 9-4 8-6z" fill="#303FC2"/>
<path transform="translate(469,384)" d="m0 0h3l1 10 1 28 4-2 4-4 2 1-2 2 2 2-6 5-1 7 1 2h-2v8l-2-3v-11l1-2-4-2-1-9v-28l-2-3z" fill="#0B0753"/>
<path transform="translate(585,83)" d="m0 0 8 2 1 3-6 16-4 2-4-8 1-5 2-2 1-7z" fill="#FFFFFD"/>
<path transform="translate(185,219)" d="m0 0 1 2-2 6-9 11-12 17-4 6-3-1 2-5 8-12 11-15z" fill="#FD2913"/>
<path transform="translate(132,831)" d="m0 0 7 1 3 4 2-1 2 5v8l-3 5-2 1-6 10-9-1 4-2 5-2 2-4v-18z" fill="#4141AB"/>
<path transform="translate(396,57)" d="m0 0h14v3h-6v11l-3-2-1-9-25 5-2 4-1-6h-7v-1l23-4z" fill="#323EBD"/>
<path transform="translate(501,860)" d="m0 0 7 1 3 2v13l-8 7h-2v-4l4-4v-3-2h-5l-2-5z" fill="#46469C"/>
<path transform="translate(654,822)" d="m0 0h11l6 4 4 6v4h-7l-7-5v-3h-5l-1-4-2-1z" fill="#4142AB"/>
<path transform="translate(623,848)" d="m0 0 5 1 1 2v9l-3 5-9 6h-8l-2-1v-3l-3-1v-3l5 2 2 2 9-3 3-4 2-2-3-5z" fill="#4B4C9E"/>
<path transform="translate(417,680)" d="m0 0h22l32 1 7 1v1l-38 1-3-1-8 1h-15l-5-2v-1z" fill="#424290"/>
<path transform="translate(422,379)" d="m0 0 29 1 19-1 2 4h-52l-2-3z" fill="#FFFFFD"/>
<path transform="translate(618,103)" d="m0 0 5 2 6 7 1 4-2 3-6-10-7-2-3 9h4l2-5 1 2h2l1 5-2 2h-8l-3-2v-7l6-7z" fill="#343BB7"/>
<path transform="translate(419,432)" d="m0 0h51l3 1-1 3h-49l-4-1z" fill="#FFFFFD"/>
<path transform="translate(201,821)" d="m0 0 9 1 7 8 3 5-3 1v2l-7-1-9-13z" fill="#4243A9"/>
<path transform="translate(124,327)" d="m0 0 1 4-11 38h-4l3-14 6-20 3-6z" fill="#FE3110"/>
<path transform="translate(226,125)" d="m0 0 6 5v6l3 3h13l1 5h-14l-9 4h-3l1-4 4-3v-10l-6-2z" fill="#4B4DA2"/>
<path transform="translate(337,821)" d="m0 0 2 2h-2l-2 18h-2l2 4h-2v12l-3-1-1-3h2l-1-8v-22z" fill="#424290"/>
<path transform="translate(748,837)" d="m0 0h2l6 17 2-3 2-2-1 6-3 3-3-1-1-2h-2l-2 4-4-14v-2h2v-2l-2-1 2-2 2 1z" fill="#494A9B"/>
<path transform="translate(483,827)" d="m0 0h3l1 5-2 1 1 3 2 2v22h-2l-1-3v-7l-4 1v-10l1-5v-8z" fill="#4C4D9F"/>
<path transform="translate(476,823)" d="m0 0h3l1 5-3 9 1 8-3 7-1-4-4 1-2 3 1-7z" fill="#4344A8"/>
<path transform="translate(452,822)" d="m0 0 3 1 8 26 1 6-2-1-2-3-1-1-2 3-3-14-2-7z" fill="#48499D"/>
<path transform="translate(401,431)" d="m0 0 16 1 1 4 5-1 2 2h-4l-1 7-2 3-1-2-4 3 2-6v-5l-19-1v-3z" fill="#100751"/>
<path transform="translate(251,159)" d="m0 0 4 1-1 3-11 8-7 5-4 1-8 7-4 2-6 6-2-1 9-9 10-8 13-10z" fill="#FA2B20"/>
<path transform="translate(417,384)" d="m0 0 4 1-1 2v41l-3 4-3-6-4-5h3l-5-4-5-2-11-1v-1h13l12 7z" fill="#0B0753"/>
<path transform="translate(170,187)" d="m0 0 7 1 3 3v7l-2 4-4 1 1-11-9 1-4 5h-2l-3-5 2-3 6-1z" fill="#3945BA"/>
<path transform="translate(588,646)" d="m0 0v3l1 35 1 11v26l-2 3v-21l-1-17-2-20v-16z" fill="#424290"/>
<path transform="translate(479,100)" d="m0 0 16 1 19 3 2 1v2h-11l-20-3-17-1v-1z" fill="#F3213A"/>
<path transform="translate(527,48)" d="m0 0h9l10 4 6 4 3 4-1 3-8-6-7-4-10-1h-2l-2 4-2 2-2-1 1-4z" fill="#3743BB"/>
<path transform="translate(769,341)" d="m0 0 5 1 6 21v6h-4l-7-25z" fill="#FFFFFD"/>
<path transform="translate(728,193)" d="m0 0 3 1 1 5 5-2 6-1-6 7-8 7h-2v2l-4 3-4-1 1-3 8-7 1-4z" fill="#2C36BE"/>
<path transform="translate(638,105)" d="m0 0 2 1-1 6-9 19-4 6h-2l1-7 4-14h3z" fill="#2C35BD"/>
<path transform="translate(339,73)" d="m0 0 2 2 6 19 2 7v7h-3l-6-21-3-11z" fill="#3741B8"/>
<path transform="translate(610,93)" d="m0 0 1 4-12 28-4 2 1-7 7-17 5-8z" fill="#2B34BE"/>
<path transform="translate(328,75)" d="m0 0 2 4 8 27 1 5-4 1-3-9-5-18z" fill="#3138B5"/>
<path transform="translate(307,82)" d="m0 0 2 1 1 3 11 6 6 12 1 8-4-1-5-14-4-4-6-3-2-4h-2v-2h2z" fill="#474AA5"/>
<path transform="translate(719,163)" d="m0 0 4 2v2h-2l-2 5-8 9-5 5-4 5h-4l2-5 2-4 5-3 7-9 4-3z" fill="#3743BA"/>
<path transform="translate(370,70)" d="m0 0 2 3-1 2h-4l-10 6-1 4h11l2 2-3 1h-14v-7l5-5 6-4z" fill="#3035AF"/>
<path transform="translate(556,850)" d="m0 0h11l2 1-1 4-13 1-4 7-2 5-3 3h-6v-5l2 3 2-4 3-1 6-10z" fill="#4C4D9F"/>
<path transform="translate(399,68)" d="m0 0h2l2 12 1 3-5-1-1-1-9-1v-4l6-6z" fill="#FFFFFD"/>
<path transform="translate(219,835)" d="m0 0 5 5 3-1-1 4h-2v4h-2l-2 6-2-3-7-11v-2l6 1v-2z" fill="#4A4B9C"/>
<path transform="translate(408,862)" d="m0 0h25l1 1v7l-2-4 1-2-2 1-1 2-3 1h-11l-1-4-2-1-2 5h-2l-2-5z" fill="#4344AA"/>
<path transform="translate(811,261)" d="m0 0 4 1 6 12 2 5v3l-5 1-5-12-3-6z" fill="#FFFFFD"/>
<path transform="translate(822,289)" d="m0 0 5 1 5 13v6l-3 1-2-1-6-16z" fill="#FFFFFD"/>
<path transform="translate(376,78)" d="m0 0h1l3 19-1 2h-2l-2-7h-7v3l-10 1-5-1v-3l14-1 4-2h5l-1-4z" fill="#3037B8"/>
<path transform="translate(487,65)" d="m0 0h6l6 5v13h-2l-3-14h-5l-2 7-5-1 1-7z" fill="#2831BF"/>
<path transform="translate(189,851)" d="m0 0 3 1 6 16v3h-7l-3-4v-4l2-1-2-2-1-3h2z" fill="#4A4B9E"/>
<path transform="translate(152,273)" d="m0 0 4 1-1 4-8 16-5-1 1-5 7-14z" fill="#FFFFFD"/>
<path transform="translate(638,853)" d="m0 0 6 1 4 5 1 3 3 3-2 2h-4l-3-3-4-1-3-5v-4z" fill="#4344AA"/>
<path transform="translate(74,388)" d="m0 0h12l3 3v22l-1 23h-1l-2-29 1-11-2-3h3v-3l-5 1-8-2z" fill="#424290"/>
<path transform="translate(541,76)" d="m0 0 2 1-1 3 8-1 3 3v5l-3 1 2 2h-7l-5-4-1-6z" fill="#52489C"/>
<path transform="translate(696,849)" d="m0 0 14 2 1 3-15 2-7 14-1 1h-6l-1-4 2-1 1 3 3-3 4-5 1-5h2z" fill="#4C4D9F"/>
<path transform="translate(137,300)" d="m0 0h5l-1 6-6 14-5-1 1-5 5-13z" fill="#FFFFFD"/>
<path transform="translate(173,835)" d="m0 0h2l5 8 1 7h-8l-4-2z" fill="#03010A"/>
<path transform="translate(701,835)" d="m0 0 5 5 3 9v1h-11l-1-2z" fill="#03010B"/>
<path transform="translate(65,271)" d="m0 0 3 1-1 6-4 12-5 2-1-5 6-15z" fill="#FFFFFD"/>
<path transform="translate(741,849)" d="m0 0h1v20l-2 2h-6l-1-1v-20h1v8l3 1-2 1v2l5-1z" fill="#4B4C9E"/>
<path transform="translate(561,835)" d="m0 0 3 2 4 11v2h-11l-1-3 4-11z" fill="#03020F"/>
<path transform="translate(297,63)" d="m0 0 1 2h-3l1 3-4 3-1 4 14-3 5 1 1 3 4 1h-5l-1-1h-9l-4 1h-8l-1-1 1-7 6-5z" fill="#343FBA"/>
<path transform="translate(519,70)" d="m0 0 2 4 1 1-1 11-2 12-1 2h-4l2-15z" fill="#3544BF"/>
<path transform="translate(78,244)" d="m0 0h3l-3 10-5 10-4 1-1-4 8-15z" fill="#FFFFFD"/>
<path transform="translate(200,163)" d="m0 0h9l2 2v3l-13 3-7 1 2-5 4-3z" fill="#FFFFFD"/>
<path transform="translate(516,105)" d="m0 0 20 4 7 2 1 4-7-1-21-5-6-1v-1h6z" fill="#FB291B"/>
<path transform="translate(750,285)" d="m0 0 2 1 7 16 1 5-5-1-8-17v-3z" fill="#FFFFFD"/>
<path transform="translate(768,821)" d="m0 0h3l-1 10h-2v6l-2 1 4 1-2 9h-2l1-6-5-1 2-9 3-10z" fill="#4A4A9C"/>
<path transform="translate(168,170)" d="m0 0 3 3-1 4-8 6-3 6v4l-4-2v-4l3-6 9-9z" fill="#3743BB"/>
<path transform="translate(308,835)" d="m0 0 5 5v2l4 1 1 7-4-4-4-5-1 30h-8v-2l5-1 1-9v-23z" fill="#454595"/>
<path transform="translate(371,62)" d="m0 0 2 1v6h2l1 6v14h-2l-4-23h-14v-1l6-2z" fill="#2934C1"/>
<path transform="translate(407,65)" d="m0 0 7 1 5 6 1 6-4 5h-6l1-4 4-3-2-5-6-5z" fill="#3338B7"/>
<path transform="translate(761,312)" d="m0 0 3 1 6 17-1 3-4-1-5-14v-5z" fill="#FFFFFD"/>
<path transform="translate(201,141)" d="m0 0 2 2-5 4-5 5-13 12-1-2 2-4 5-1v-3l2-1 1-4 6-6z" fill="#333EBC"/>
<path transform="translate(306,82)" d="m0 0 1 2-9 2-1 3-7 1-10 3v-4l16-6z" fill="#2835C4"/>
<path transform="translate(508,70)" d="m0 0h1l-1 26-4-2-2-9 4-10z" fill="#313ABC"/>
<path transform="translate(529,72)" d="m0 0 3 2 2 16 2 7h-2l-1 2-3-5-2-15z" fill="#3642BD"/>
<path transform="translate(417,55)" d="m0 0h10l4 1 7-1v3l-1 1h-7l-5-2v2h-15v-2h-5v-1z" fill="#3241C1"/>
<path transform="translate(361,109)" d="m0 0 2 1-1 1 3 2-20 5-14 5-4-1 11-4 8-2v-3z" fill="#F52032"/>
<path transform="translate(685,109)" d="m0 0 4 1 15 12 2 6-4-2-17-14z" fill="#FB191D"/>
<path transform="translate(543,75)" d="m0 0 7 1 6 4 3 1-2 7-9 1 2-2h3l-2-6-3-1-6 1v-4z" fill="#474AA5"/>
<path transform="translate(482,849)" d="m0 0 3 1v7l2 1-1 2h2v10l-4-1v-6l-1 2h-2v-14z" fill="#4142B0"/>
<path transform="translate(446,262)" d="m0 0h2l2 2 1 2h2l2 4-1 7-4 1-3-1-1-7z" fill="#0D0C68"/>
<path transform="translate(158,206)" d="m0 0 5 1 12 8v3l-5-1-8-4-9-3v-1h6z" fill="#2F3EC2"/>
<path transform="translate(697,156)" d="m0 0 7 1 4 4v6h-2l-1 2-1-5v-4l-6 3-5 1-1-4z" fill="#3644BD"/>
<path transform="translate(187,141)" d="m0 0h5v3l-9 4-8 5-6-2v-7l3 1 1 3 7-2z" fill="#494CA3"/>
<path transform="translate(35,413)" d="m0 0h8l-3 1 2 4-1 7h-2v-2h-2l-1 4-3 3 1-14z" fill="#424290"/>
<path transform="translate(479,378)" d="m0 0h13l3 1v4l-14 1-5-2v-3z" fill="#0B0753"/>
<path transform="translate(760,857)" d="m0 0h3l-1 7-3 6-5 1-4-6-1-6 4 3 2-1 1 5z" fill="#4B4C9D"/>
<path transform="translate(197,149)" d="m0 0h2v6l4 1 2 4-4 1-1 3-4 1-1-2-4-1 6-8z" fill="#4544AA"/>
<path transform="translate(736,824)" d="m0 0h3l3 9 2 5v3h2v2h-2l1 5-3-4-2 3-3-9 1-1z" fill="#424291"/>
<path transform="translate(738,211)" d="m0 0 4 1 1 2-4 3-1 3 6-1 1-2h4l-1 4-2 2h-10l-2-6z" fill="#444AAB"/>
<path transform="translate(153,217)" d="m0 0h3l2 3-1 7-2 2-6 1-5-3v-4l5 2v2l3-1-1-7h2z" fill="#3D46B3"/>
<path transform="translate(524,36)" d="m0 0h10l16 4 4 4-8-1-22-5z" fill="#ED1A4C"/>
<path transform="translate(642,826)" d="m0 0 4 5 3 8-3-1v-2h-6l3 9-5-5-1-6 3-6z" fill="#424291"/>
<path transform="translate(233,175)" d="m0 0h2v2l-10 8-12 11-5 5h-3l2-4 4-5 5-3 14-12z" fill="#EB1954"/>
<path transform="translate(439,99)" d="m0 0h34l6 1-3 2-39-1z" fill="#EB1654"/>
<path transform="translate(339,831)" d="m0 0h1v38l-1 2-3-1v-16l2-1z" fill="#474898"/>
<path transform="translate(178,177)" d="m0 0 4 2 14 12v4l-4-2-10-9-3-2v-2l-2-1z" fill="#3440BD"/>
<path transform="translate(413,863)" d="m0 0 3 1v3h11l3-2 3-1v6h-26l1-2h3z" fill="#4A4BA0"/>
<path transform="translate(542,66)" d="m0 0 9 1 14 4-4 3-6-1-15-4 2-1z" fill="#484CA6"/>
<path transform="translate(383,850)" d="m0 0 3 3 2 4-4 4h-3l-2 5-7 1-3-2-2-2 9-1 4-3z" fill="#4142AB"/>
<path transform="translate(228,847)" d="m0 0h2l-2 23h-6l1-5h3l2-9-4-1v-3l-3 1v-3z" fill="#494A9A"/>
<path transform="translate(109,821)" d="m0 0 17 1v1l-8 1 2 2-1 2-7 1v-5l-1 4-1 5-2 4v-15z" fill="#3E42AE"/>
<path transform="translate(682,152)" d="m0 0h3l1 15 1 6-4-2-2-5v-12z" fill="#3343C2"/>
<path transform="translate(590,98)" d="m0 0h2l-1 9-4 10-3 2v-9z" fill="#2731C1"/>
<path transform="translate(199,150)" d="m0 0 4 1 8 9v4l-10-1v-2l3-1-2-4-3-1z" fill="#333AAE"/>
<path transform="translate(507,861)" d="m0 0 4 2v13l-8 7h-2v-4l5-4h1l1-12-2-1z" fill="#4A4BA0"/>
<path transform="translate(188,129)" d="m0 0 3 1 1 2-8 3-7 5-4 5-3 1 1-4 5-6 9-6z" fill="#3A40AF"/>
<path transform="translate(381,59)" d="m0 0 9 1 1 2-16 3-2 4-1-6h-7v-1z" fill="#3343C2"/>
<path transform="translate(218,150)" d="m0 0 5 5 8 10v4l-4-2-8-9-2-4h2z" fill="#343BB6"/>
<path transform="translate(298,86)" d="m0 0h1l1 9h9l-1 3h2v2h-14v-12z" fill="#4048B0"/>
<path transform="translate(286,56)" d="m0 0h6l-1 3-15 6-5-1v-2z" fill="#F71E2B"/>
<path transform="translate(169,850)" d="m0 0h15l-2 5-14 1-4 1 2-1v-2h2z" fill="#4E4FA0"/>
<path transform="translate(448,407)" d="m0 0h14l2 4v9l-2 3h-15l-1-1v-12zm1 1-2 2v10l2 2h11l2-1v-12l-1-1z" fill="#4A4592"/>
<path transform="translate(307,48)" d="m0 0 5 1v2l-20 7v-2l-4-1z" fill="#F82326"/>
<path transform="translate(383,838)" d="m0 0 4 5v5l1 4 2 1-1 4-4-4-1-2-2 1-1-7z" fill="#4D4EA0"/>
<path transform="translate(504,245)" d="m0 0h8l7 4 4 5 1 7-3-4-3-6-5-2-6 1-7-2 1-2z" fill="#0B0753"/>
<path transform="translate(270,63)" d="m0 0 4 1v2l-18 9h-3v-2l4-2 3-3z" fill="#F01646"/>
<path transform="translate(444,858)" d="m0 0h6v9l-1 3h-5l-1-3z" fill="#4142B1"/>
<path transform="translate(727,185)" d="m0 0h1l2 8-3 1-2-1-4 3-6-1-4-5v-2l4 1 2 2 5-1 2-2v3h3z" fill="#3745BD"/>
<path transform="translate(343,114)" d="m0 0h3v2l-16 6-1 2-11 1v-2l21-8z" fill="#FE2A11"/>
<path transform="translate(371,31)" d="m0 0 4 2-3 2-15 3h-6l-1-2 11-3z" fill="#FC1A1A"/>
<path transform="translate(671,97)" d="m0 0 9 6 7 5-4 3-15-11z" fill="#FD3014"/>
<path transform="translate(400,64)" d="m0 0 1 4-8 5-5 4-2 1 1 3 2 1-4-1-1-4 5-7 9-4h2z" fill="#3941B5"/>
<path transform="translate(428,386)" d="m0 0h9l3 2h-13l1 13 12 1v1l-13 1-2-2v-13z" fill="#583F8E"/>
<path transform="translate(605,60)" d="m0 0 12 5 4 3v3l-6-2-13-6z" fill="#F61D2D"/>
<path transform="translate(211,161)" d="m0 0 2 1v2h2l5 6-1 3-11-2-3-3h6l-1-4z" fill="#3B43B8"/>
<path transform="translate(254,126)" d="m0 0 4 2 7 13-1 4-4-4-6-11z" fill="#2D35BB"/>
<path transform="translate(430,22)" d="m0 0h23l-1 3h-22z" fill="#FCBD39"/>
<path transform="translate(753,204)" d="m0 0 1 3 5-2 9 12-1 2-2-2-2 1-4-7v-2h-3l-2 3h-3z" fill="#3A46B9"/>
<path transform="translate(618,103)" d="m0 0 5 2 6 7 1 4-2 3-6-10-7-2v-3z" fill="#4D46A1"/>
<path transform="translate(469,55)" d="m0 0h13l8 2-1 2h-13l-7-1z" fill="#2F3FC4"/>
<path transform="translate(551,41)" d="m0 0 7 1 12 4v4l-11-3-7-2z" fill="#F1203E"/>
<path transform="translate(747,192)" d="m0 0 5 3 6 8-1 4h-3l-5-9-5-4h3z" fill="#3744BC"/>
<path transform="translate(321,95)" d="m0 0h2l5 12v5l-4-1-3-9z" fill="#3238B5"/>
<path transform="translate(777,821)" d="m0 0h2l-1 17-3 1-1-7v-8z" fill="#4C4DA0"/>
<path transform="translate(622,854)" d="m0 0 4 4-6 7-11 3v-3l6-1 3-3h2v-4h2z" fill="#4041AD"/>
<path transform="translate(469,71)" d="m0 0 4 2 5 8 4 4-4 2-6-7-3-6z" fill="#373EB3"/>
<path transform="translate(149,214)" d="m0 0h2l2 9-1 4h-3l-3-3 1-7z" fill="#FFFFFD"/>
<path transform="translate(352,81)" d="m0 0 1 2h2l1-2v4h11l2 2-3 1h-14z" fill="#463C99"/>
<path transform="translate(418,862)" d="m0 0h15l1 1v7l-2-4 1-2-2 1-1 2-7-1-5-1z" fill="#414290"/>
<path transform="translate(719,163)" d="m0 0 4 2v2h-2l-2 5-4 5-4 1 1-5 5-5z" fill="#2D38BF"/>
<path transform="translate(288,103)" d="m0 0 4 2v2l8 4 6 1v1l-7 2-8-5-4-5z" fill="#3440BC"/>
<path transform="translate(211,97)" d="m0 0 2 1-3 3 1 2-10 7h-3l2-4 5-5z" fill="#F2193D"/>
<path transform="translate(548,79)" d="m0 0 4 2 1 1v5l-4 1-5-3 1-4z" fill="#FFFFFD"/>
<path transform="translate(349,51)" d="m0 0h10l5 2 2 3-10-1-9-1v-2z" fill="#3241C0"/>
<path transform="translate(245,133)" d="m0 0 4 2 5 7 1 6-7-5v-4h-2l-2-5z" fill="#2C39C2"/>
<path transform="translate(487,65)" d="m0 0 5 2-3 2-2 7-5-1 1-7z" fill="#323CBB"/>
<path transform="translate(543,51)" d="m0 0 5 2 6 5 1 5-5-3-9-6v-2z" fill="#3845BB"/>
<path transform="translate(475,838)" d="m0 0 2 1 1 3-2 9-2 1v-4l-3-1v-5l3-1z" fill="#4B4C9E"/>
<path transform="translate(552,856)" d="m0 0 1 3-4 9-3 3h-6v-5l2 3 2-4 3-1z" fill="#494A9C"/>
<path transform="translate(635,137)" d="m0 0 5 1 1 5-2 6h-2l-3-7z" fill="#3742B8"/>
<path transform="translate(229,137)" d="m0 0h2l3 3-1 4-7 4h-3l1-4 4-3z" fill="#3240C0"/>
<path transform="translate(404,64)" d="m0 0 2 2v17l-1 1h-5l3-2-2-9 1-4 1 1z" fill="#3F48B1"/>
<path transform="translate(530,63)" d="m0 0 8 1 4 1v3h-9l-9-2 4-2z" fill="#3343C2"/>
<path transform="translate(316,60)" d="m0 0 5 2 5 6-2 5-2-3-2-5-10-2v-1z" fill="#3339B6"/>
<path transform="translate(176,188)" d="m0 0 4 3v7l-2 4-4 1 2-12z" fill="#4B4DA1"/>
<path transform="translate(367,91)" d="m0 0 2 1-1 3-10 1-5-1v-3z" fill="#4146AB"/>
<path transform="translate(165,858)" d="m0 0 1 2-5 10-1 1h-7l1-6h3v2h3l4-8z" fill="#494A9C"/>
<path transform="translate(339,73)" d="m0 0 2 2 3 12-3 4-4-13z" fill="#3941B6"/>
<path transform="translate(508,33)" d="m0 0h14l8 2v1l-10 1-12-2z" fill="#F7212B"/>
<path transform="translate(741,185)" d="m0 0 4 2 4 4-1 2-4 1v2l-6 1 2-3h2z" fill="#3535B6"/>
<path transform="translate(190,128)" d="m0 0h9l6 5-2 3-4-3-9-2z" fill="#2D36BB"/>
<path transform="translate(579,96)" d="m0 0 3 4 2 3v3h2l-2 4-6-8v-2l-5-2 4-1z" fill="#4243AB"/>
<path transform="translate(432,77)" d="m0 0h1l1 18-4 1-1-1v-9l2-2z" fill="#4B4DA1"/>
<path transform="translate(324,70)" d="m0 0 3 1 1 2v10l-2-1-1-5h-5v-3l4-3z" fill="#252FBE"/>
<path transform="translate(578,853)" d="m0 0 2 3 5 12v3l-7-1 1-3h2l-1-7-2-1-1-5z" fill="#4A4B9D"/>
<path transform="translate(711,852)" d="m0 0 4 4 2 5 3 1 2 5h-2l-1-4-4 3-4-9v-2h-7v-1h7z" fill="#4242A6"/>
<path transform="translate(714,504)" d="m0 0 1 3-1 3v8l8 11-1 2-9-11-1-2v-7z" fill="#424290"/>
<path transform="translate(638,105)" d="m0 0 2 1-1 6-5 10-3-4 6-10z" fill="#2F3CC1"/>
<path transform="translate(479,100)" d="m0 0 16 1-4 2h-23v-1z" fill="#D11A33"/>
<path transform="translate(348,36)" d="m0 0 5 2-4 2-10 2-4-1v-2z" fill="#FD2515"/>
<path transform="translate(558,83)" d="m0 0h2l1 5v9l-5 1 1-13z" fill="#3543BD"/>
<path transform="translate(512,60)" d="m0 0h9v2h2v3h-2l-1 4v-5l-10-1v-2z" fill="#2E35BB"/>
<path transform="translate(234,172)" d="m0 0m-2 1 2 1-5 5-6 5-7 6-4 2 6-7z" fill="#FE3210"/>
<path transform="translate(565,92)" d="m0 0h7l1 1 7 1-2 4-10-2z" fill="#3042C6"/>
<path transform="translate(658,90)" d="m0 0 5 1 8 6-1 2-5-1-8-6z" fill="#FA251E"/>
<path transform="translate(692,856)" d="m0 0h2l-1 6-4 8-1 1h-6l-1-4 2-1 1 3 3-3 4-5z" fill="#4A4A9B"/>
<path transform="translate(559,94)" d="m0 0h1l-1 7-6 5-3-1v-3l4-2 1-2 3-1z" fill="#2F3CC1"/>
<path transform="translate(291,85)" d="m0 0v3l-3 3-8 2v-4z" fill="#3240C0"/>
<path transform="translate(240,822)" d="m0 0 4 1v3l-4 4h-4-2l2-4z" fill="#222CC5"/>
<path transform="translate(729,203)" d="m0 0v3l-2 3 2 1h-2v2l-4 3-4-1 1-3 8-7z" fill="#3543BF"/>
<path transform="translate(312,109)" d="m0 0 2 3-5 4h-8v-3l8-2h2z" fill="#2B3CC8"/>
<path transform="translate(322,856)" d="m0 0h3l1 5h2l1 4h3v2h2l1 4-4-1-7-9z" fill="#494A9B"/>
<path transform="translate(369,107)" d="m0 0 4 1 3 2-8 2h-8l4-4z" fill="#EF1749"/>
<path transform="translate(387,76)" d="m0 0 2 3 9 1 2 3-9 1-2-1v-2h-2v-2l-2-1z" fill="#3442BF"/>
<path transform="translate(524,36)" d="m0 0h10l9 2-1 2h-9l-9-2z" fill="#F2183E"/>
<path transform="translate(469,860)" d="m0 0 2 1-1 8-2 2h-5l-2-2 1-3h4l1 2z" fill="#4A4B9C"/>
<path transform="translate(644,825)" d="m0 0h7l1 3-3 4-4-1-2-5z" fill="#4142AF"/>
<path transform="translate(604,825)" d="m0 0h5l2 2 4 1v2l4 2 1 2-6-3-9-1z" fill="#424290"/>
<path transform="translate(170,503)" d="m0 0 2 3 3 10-6 7v-3-3h2v-5l-1-5z" fill="#424290"/>
<path transform="translate(488,432)" d="m0 0h6l2 2-2 2-13-1-2-2z" fill="#0B0753"/>
<path transform="translate(131,424)" d="m0 0 3 2 9-2 4 1-6 3-3 2h-3v-2h-4z" fill="#424290"/>
<path transform="translate(187,141)" d="m0 0h5v3l-9 4-4 1 3-5z" fill="#3C3EB1"/>
<path transform="translate(667,852)" d="m0 0h2l1 5-4 8-8 3-1-3 9-5 1-6z" fill="#3E41AC"/>
<path transform="translate(218,838)" d="m0 0 3 1 1 4h2v4h-2l-2 6-2-3 2-10h-2z" fill="#424292"/>
<path transform="translate(242,821)" d="m0 0h5l-1 5-7 9-2 3-2-1 7-11h2z" fill="#45469E"/>
<path transform="translate(219,92)" d="m0 0 2 1-3 5-6 4-3-1 6-7z" fill="#ED1A4D"/>
<path transform="translate(638,853)" d="m0 0 6 1 1 2h-2l-1 3-1-1-1 2h-3l-1-6z" fill="#46469D"/>
<path transform="translate(308,835)" d="m0 0 5 5v2l4 1 1 7-4-4-4-5-3-3z" fill="#434493"/>
<path transform="translate(151,209)" d="m0 0 5 1-3 2 1 5-1 2h-2v-5l-5 2 1-5z" fill="#5E4494"/>
<path transform="translate(328,75)" d="m0 0 2 4 4 14v3h-2l-3-12-2 1z" fill="#514798"/>
<path transform="translate(360,63)" d="m0 0 2 1v1l4 1-10 3h-3v-2h-5l4-2z" fill="#3444C0"/>
<path transform="translate(502,863)" d="m0 0h6l1 5-1 7-2 1v-6l1-2-4-2-1 2-1-4z" fill="#1F2BBF"/>
<path transform="translate(726,536)" d="m0 0 5 4 9 11 2 5-5-5-11-13z" fill="#424290"/>
<path transform="translate(768,219)" d="m0 0 5 5 1 4-5-2-4-2-1-2h3z" fill="#3544BF"/>
<path transform="translate(166,212)" d="m0 0h5l5 5-5 1-7-4z" fill="#3644BE"/>
<path transform="translate(334,96)" d="m0 0 2 3 3 9v3l-4 1-1-3v-8l-1-4z" fill="#4B4DA1"/>
<path transform="translate(335,62)" d="m0 0h1v7l3 1-4 2 2 1-1 2h-8l-1-3 7-1z" fill="#3E42AA"/>
<path transform="translate(704,123)" d="m0 0 4 2 5 4-1 4-4-2-4-6z" fill="#F41D36"/>
<path transform="translate(345,95)" d="m0 0 3 4 1 2v7h-3l-1-2z" fill="#333FBC"/>
<path transform="translate(593,88)" d="m0 0h2l1 5-3 8-1-3h-2z" fill="#2E3BBF"/>
<path transform="translate(431,63)" d="m0 0h1v21l-2 3-1-1 1-9z" fill="#3342C3"/>
<path transform="translate(543,75)" d="m0 0 7 1v3l-4 2-5-1z" fill="#2833C2"/>
<path transform="translate(743,163)" d="m0 0 5 4 4 7-3 1-6-8z" fill="#EB1F55"/>
<path transform="translate(734,822)" d="m0 0 3 3 1 4-2 6-2 4z" fill="#4142B1"/>
<path transform="translate(727,185)" d="m0 0h1l2 8-3 1-2-1-4 2-4-3 5-2 2-2v3h3z" fill="#494CA4"/>
<path transform="translate(199,156)" d="m0 0 5 1v4l-8 1z" fill="#FFFFFD"/>
<path transform="translate(262,152)" d="m0 0 2 1zm-1 1m-2 1h2l-2 5-4 2-3-1v-2z" fill="#FE2314"/>
<path transform="translate(620,68)" d="m0 0 5 1 5 3-1 3-6-2-2-1z" fill="#FB231C"/>
<path transform="translate(764,838)" d="m0 0h5l1 4-2 6h-2l1-6-4-1z" fill="#4B4B9E"/>
<path transform="translate(700,821)" d="m0 0h5l4 5 1 3-3-1-3-3v-3h-3l-2 6-2-1 2-5z" fill="#48499C"/>
<path transform="translate(675,207)" d="m0 0 4 1 5 6 4 3v2h2l-1 2-4-2-7-8z" fill="#FDE1A5"/>
<path transform="translate(388,71)" d="m0 0 5 1-5 5-2 1 1 3 2 1-4-1-1-4z" fill="#4B48A2"/>
<path transform="translate(733,850)" d="m0 0h1v8l3 1-2 1v8l-2 2z" fill="#41429D"/>
<path transform="translate(742,556)" d="m0 0 5 4v2h2l6 9-1 2-11-14z" fill="#424290"/>
<path transform="translate(233,175)" d="m0 0h2v2l-10 8-5 3 2-4z" fill="#EE184B"/>
<path transform="translate(169,171)" d="m0 0h3v3l3-1 4 4-1 2-6-2z" fill="#2B3DCA"/>
<path transform="translate(240,123)" d="m0 0 5 5 2 5-4 1-2-3z" fill="#3841B7"/>
<path transform="translate(403,58)" d="m0 0h1v13l-3-2v-9z" fill="#252EC1"/>
<path transform="translate(147,425)" d="m0 0 2 4 1 11-3-1-1-7z" fill="#424290"/>
<path transform="translate(740,215)" d="m0 0h5l1 2-2 3h-6l1-4z" fill="#FFFFFD"/>
<path transform="translate(740,196)" d="m0 0 3 1-8 7-2-2h2l-1-3z" fill="#3242C3"/>
<path transform="translate(598,116)" d="m0 0 2 4-1 5-4 2 1-7z" fill="#3544BF"/>
<path transform="translate(343,114)" d="m0 0h3v2l-8 3-6 1 2-3z" fill="#FE2411"/>
<path transform="translate(481,85)" d="m0 0 9 1v3h-7l-4-2z" fill="#2832C1"/>
<path transform="translate(371,62)" d="m0 0 2 2-2 3-1-1h-14v-1l6-2z" fill="#212CC5"/>
<path transform="translate(310,59)" d="m0 0h6l-1 3-9 1-2-2z" fill="#2E38BD"/>
<path transform="translate(433,55)" d="m0 0h5v3l-1 1h-7l-3-3z" fill="#3C41AF"/>
<path transform="translate(741,849)" d="m0 0h1v20l-1-4-5-2 2-2h2z" fill="#41429B"/>
<path transform="translate(473,837)" d="m0 0h2l-1 5h-2l-2 7-2 3 1-7 2-7z" fill="#454598"/>
<path transform="translate(446,410)" d="m0 0h1l1 10 1 1h12v2h-14l-1-1z" fill="#5A3C80"/>
<path transform="translate(760,209)" d="m0 0 4 2 4 6-1 2-2-2-2 1-3-6z" fill="#3E46B3"/>
<path transform="translate(200,105)" d="m0 0m-2 1 2 1-2 3 2 1-6 4-2-4z" fill="#FE2511"/>
<path transform="translate(229,85)" d="m0 0v3l-3 2 1 2-7 4v-5z" fill="#F51A32"/>
<path transform="translate(305,72)" d="m0 0 5 1 1 3 4 1h-5l-7-2-5-1v-1z" fill="#4244A2"/>
<path transform="translate(445,853)" d="m0 0h5v5l-3 1-4-1z" fill="#4D4EA0"/>
<path transform="translate(560,821)" d="m0 0h5l2 4h-2l-1-2-4 1-2 2-1 4-3 1 2-6z" fill="#464796"/>
<path transform="translate(444,546)" d="m0 0 1 4-2 10h-2v-12l2 1z" fill="#F11443"/>
<path transform="translate(151,188)" d="m0 0h1v5l-3 5h-2l-1-4z" fill="#2C35BC"/>
<path transform="translate(251,159)" d="m0 0 4 1-1 3-5 3h-3l2-4z" fill="#F7152E"/>
<path transform="translate(583,84)" d="m0 0h1v7l-4 4-7-1v-1l6-2 2-4v3h2z" fill="#4D4EA0"/>
<path transform="translate(296,52)" d="m0 0h2v2l2 1-8 3v-2l-4-1z" fill="#FC201B"/>
<path transform="translate(529,49)" d="m0 0h10l4 2-4 2-10-3z" fill="#2A33BF"/>
<path transform="translate(749,854)" d="m0 0h4l1 8-1 2-4-5z" fill="#4142B1"/>
<path transform="translate(746,217)" d="m0 0h3l-1 4-2 2h-8v-2l7-1z" fill="#283FD2"/>
<path transform="translate(726,170)" d="m0 0 4 2 4 3v3h-5z" fill="#2734C5"/>
<path transform="translate(200,169)" d="m0 0h10l-3 3h-9v-2z" fill="#2A36C1"/>
<path transform="translate(740,159)" d="m0 0 4 2 4 4-1 2-3-3-2 2-3-3z" fill="#FA2021"/>
<path transform="translate(188,153)" d="m0 0 2 2-10 9-1-2 2-4 5-1v-3z" fill="#4D4EA0"/>
<path transform="translate(218,150)" d="m0 0 5 5 1 3-3 2-4-6h2z" fill="#323ABA"/>
<path transform="translate(542,103)" d="m0 0h7l2 2-1 2-8-1z" fill="#3343C2"/>
<path transform="translate(339,69)" d="m0 0 4 1v2l-4 2-2 2v-3l-3-1z" fill="#222CC5"/>
<path transform="translate(605,60)" d="m0 0 8 3-3 1v2l-6-2-2-2z" fill="#FB2A1D"/>
<path transform="translate(388,58)" d="m0 0h11l-3 3-10-1z" fill="#2C36BE"/>
<path transform="translate(596,56)" d="m0 0 9 4-1 2-7-1-2-4z" fill="#F41F34"/>
<path transform="translate(211,837)" d="m0 0 4 1 3 3-2 4-4-5z" fill="#444594"/>
<path transform="translate(752,200)" d="m0 0 4 1 2 2-1 4h-3l-2-4z" fill="#2630C2"/>
<path transform="translate(188,129)" d="m0 0 3 1 1 2-7 2h-4v-2z" fill="#353BB5"/>
<path transform="translate(191,112)" d="m0 0 3 1-2 4-4 1-2-2z" fill="#F41F35"/>
<path transform="translate(211,97)" d="m0 0 2 1-3 3 1 2-5 2h-1l-1-3z" fill="#FC2118"/>
<path transform="translate(112,824)" d="m0 0h6l2 2-1 2-7 1z" fill="#273DD1"/>
<path transform="translate(659,191)" d="m0 0 4 1 6 7-4-1-6-5z" fill="#FCA72B"/>
<path transform="translate(682,152)" d="m0 0h3v15l-2-4v-7z" fill="#4D4EA0"/>
<path transform="translate(213,146)" d="m0 0 4 2 2 6h-3l-3-4z" fill="#2933C1"/>
<path transform="translate(226,125)" d="m0 0 5 4-1 3-8-3z" fill="#4046AE"/>
<path transform="translate(516,105)" d="m0 0 7 2-1 2-12-1v-1h6z" fill="#FA261E"/>
<path transform="translate(136,857)" d="m0 0 1 3-2 4-9-1 4-2 5-2z" fill="#4142A0"/>
<path transform="translate(172,821)" d="m0 0h6l3 4 1 5-2-1v-3l-3-1-1-2-3-1-1 2z" fill="#494A9C"/>
<path transform="translate(153,200)" d="m0 0 4 2 3 4-1 3-3-1-1-3-2-2z" fill="#4749A7"/>
<path transform="translate(727,181)" d="m0 0 1 4-1 6h-3l1-8z" fill="#2938C7"/>
<path transform="translate(705,160)" d="m0 0 3 1v6h-2l-1 2-1-5z" fill="#3343C2"/>
<path transform="translate(197,149)" d="m0 0h2v6l3 1h-3l-2 5-2-4 2-3z" fill="#4844A6"/>
<path transform="translate(236,120)" d="m0 0 4 1 1 8-5-5z" fill="#313FC0"/>
<path transform="translate(508,65)" d="m0 0 2 1v8l-4 1v-7h2z" fill="#3945BA"/>
<path transform="translate(286,56)" d="m0 0h6l-1 3-6 1-3-2z" fill="#ED194D"/>
</svg>
